<svg xmlns="http://www.w3.org/2000/svg" width="1400" height="800" viewBox="0 0 1400 800" role="img" aria-labelledby="title desc">
  <title id="title">Chapter 3 visual: Epics and stories</title>
  <desc id="desc">Hierarchy of approved requirements into epics and stories.</desc>
  <rect width="1400" height="800" fill="#172554"/>
  <rect x="560" y="90" width="280" height="110" rx="14" fill="#f8fafc"/>
  <text x="700" y="158" text-anchor="middle" fill="#1e3a8a" font-size="34" font-family="Segoe UI, Arial, sans-serif" font-weight="700">Approved Scope</text>
  <line x1="700" y1="200" x2="700" y2="260" stroke="#bfdbfe" stroke-width="8"/>
  <rect x="170" y="260" width="310" height="110" rx="14" fill="#60a5fa"/>
  <rect x="545" y="260" width="310" height="110" rx="14" fill="#38bdf8"/>
  <rect x="920" y="260" width="310" height="110" rx="14" fill="#22d3ee"/>
  <text x="325" y="330" text-anchor="middle" fill="#0f172a" font-size="34" font-family="Segoe UI, Arial, sans-serif">Epic A</text>
  <text x="700" y="330" text-anchor="middle" fill="#0f172a" font-size="34" font-family="Segoe UI, Arial, sans-serif">Epic B</text>
  <text x="1075" y="330" text-anchor="middle" fill="#0f172a" font-size="34" font-family="Segoe UI, Arial, sans-serif">Epic C</text>
  <g fill="#e0f2fe">
    <rect x="150" y="470" width="340" height="70" rx="12"/>
    <rect x="150" y="560" width="340" height="70" rx="12"/>
    <rect x="530" y="470" width="340" height="70" rx="12"/>
    <rect x="530" y="560" width="340" height="70" rx="12"/>
    <rect x="910" y="470" width="340" height="70" rx="12"/>
    <rect x="910" y="560" width="340" height="70" rx="12"/>
  </g>
  <text x="700" y="710" text-anchor="middle" fill="#bfdbfe" font-size="32" font-family="Segoe UI, Arial, sans-serif">Incremental confirmations keep planning artifacts reviewable and traceable.</text>
</svg>
