<svg xmlns="http://www.w3.org/2000/svg" version="1.1" viewBox="0.00 0.00 512.00 512.00">
<g stroke-width="2.00" fill="none" stroke-linecap="butt">
<path stroke="#18191f" vector-effect="non-scaling-stroke" d="
  M 283.14 36.18
  Q 284.22 37.17 285.78 37.32
  Q 286.31 37.37 286.68 37.75
  L 288.22 39.36
  A 1.25 1.23 71.0 0 0 288.97 39.73
  Q 292.21 40.08 294.85 41.39
  Q 296.89 42.42 298.87 42.38
  Q 300.74 42.35 302.46 43.12
  Q 305.04 44.28 307.56 45.78
  Q 307.97 46.02 308.44 46.06
  Q 310.48 46.24 311.63 47.77
  Q 311.96 48.20 312.50 48.24
  Q 314.02 48.36 315.65 48.86
  C 316.73 49.18 318.06 49.18 318.98 49.74
  Q 320.01 50.37 321.12 50.76
  Q 325.45 52.25 330.15 53.69
  Q 330.86 53.90 331.38 54.34
  Q 331.95 54.81 332.54 55.27
  Q 333.52 56.04 334.67 56.39
  Q 335.74 56.71 336.59 57.37
  Q 336.98 57.67 337.48 57.65
  C 338.06 57.62 338.44 57.57 339.00 57.80
  Q 345.63 60.48 351.56 64.36
  C 353.18 65.42 355.32 65.84 357.23 66.15
  Q 357.73 66.23 358.13 66.54
  Q 359.66 67.73 361.56 68.10
  A 1.79 1.70 68.7 0 1 362.37 68.48
  Q 366.03 71.58 370.45 73.39
  Q 371.70 73.90 372.66 74.63
  Q 373.67 75.39 374.70 76.14
  Q 376.08 77.14 377.96 78.10
  Q 384.24 81.29 390.00 85.38
  Q 393.16 87.62 396.30 89.92
  Q 396.37 89.98 399.98 93.07
  Q 401.75 94.58 404.32 96.08
  A 0.45 0.38 76.3 0 1 404.43 96.16
  Q 406.91 99.03 409.15 101.74
  A 2.51 2.48 80.8 0 0 410.19 102.50
  Q 411.39 102.96 411.78 104.26
  Q 411.95 104.80 412.38 105.18
  L 414.60 107.08
  Q 414.97 107.41 414.90 107.90
  Q 414.83 108.38 415.36 108.39
  Q 415.82 108.39 416.11 108.75
  L 430.74 126.54
  A 0.98 0.95 21.7 0 1 430.94 126.99
  C 431.18 128.47 432.45 128.94 433.10 130.14
  Q 434.24 132.20 434.73 134.55
  Q 434.85 135.11 435.33 135.43
  Q 436.24 136.04 437.12 136.66
  Q 438.97 137.96 438.06 140.07
  Q 437.89 140.45 437.94 140.86
  Q 438.22 143.39 440.63 144.31
  Q 441.28 144.56 441.56 145.19
  Q 444.49 151.69 446.50 158.62
  A 0.02 0.02 0.0 0 1 446.47 158.63
  L 445.57 156.92
  Q 445.36 156.53 445.27 156.10
  Q 444.91 154.53 444.00 152.47
  Q 442.55 149.22 440.93 145.83
  Q 440.69 145.33 440.28 144.96
  L 438.10 143.00
  Q 437.76 142.70 437.59 143.12
  Q 437.22 144.00 436.52 144.41
  Q 429.46 148.50 423.44 153.13"
/>
<path stroke="#242429" vector-effect="non-scaling-stroke" d="
  M 423.44 153.13
  Q 419.96 148.35 416.17 142.66
  Q 412.39 136.99 408.64 132.37
  Q 401.91 124.08 398.99 120.92
  Q 384.84 105.66 376.80 99.68
  C 359.30 86.67 341.98 75.31 321.26 68.26
  C 310.72 64.67 300.27 61.71 289.41 59.91
  Q 279.37 58.24 277.61 58.00
  C 271.32 57.14 265.16 57.36 258.85 57.42
  C 249.94 57.52 241.09 57.15 232.21 57.97
  Q 220.86 59.02 210.43 61.55
  Q 199.53 64.20 190.37 67.16
  Q 173.46 72.62 164.11 77.77
  Q 147.52 86.91 136.88 94.54
  Q 117.51 108.41 101.64 128.79
  Q 90.71 142.83 84.01 155.28
  Q 76.74 168.80 71.91 180.94
  Q 64.89 198.61 60.47 223.55
  Q 58.82 232.92 58.56 243.57
  Q 58.10 262.61 59.47 278.74
  C 60.01 285.07 61.74 291.36 62.88 297.75
  Q 64.17 304.93 66.22 311.59
  Q 75.41 341.37 91.61 365.39
  Q 103.34 382.78 118.93 398.39"
/>
<path stroke="#101013" vector-effect="non-scaling-stroke" d="
  M 118.93 398.39
  Q 114.44 403.00 110.72 408.50
  Q 110.02 409.53 108.57 410.01"
/>
<path stroke="#18191f" vector-effect="non-scaling-stroke" d="
  M 108.57 410.01
  Q 104.59 410.06 102.56 408.11
  Q 99.69 405.36 97.79 404.71"
/>
<path stroke="#101013" vector-effect="non-scaling-stroke" d="
  M 97.79 404.71
  L 96.81 404.24"
/>
<path stroke="#18191f" vector-effect="non-scaling-stroke" d="
  M 96.81 404.24
  Q 96.51 402.43 95.48 401.08
  Q 95.35 400.91 94.65 399.85
  Q 94.03 398.92 93.07 398.95
  Q 92.59 398.96 92.20 398.66
  L 88.70 395.91"
/>
<path stroke="#101013" vector-effect="non-scaling-stroke" d="
  M 88.70 395.91
  Q 88.48 393.55 86.53 392.60
  Q 86.09 392.38 85.87 391.94
  Q 85.22 390.64 84.07 389.99"
/>
<path stroke="#18191f" vector-effect="non-scaling-stroke" d="
  M 84.07 389.99
  L 81.70 386.86
  Q 81.43 386.50 81.28 386.08
  Q 80.58 384.00 78.49 382.80
  Q 78.08 382.57 77.90 382.14
  Q 77.44 381.09 76.83 380.20
  Q 76.08 379.09 75.56 377.85
  Q 74.47 375.24 71.60 373.95
  Q 71.17 373.75 71.06 373.29
  Q 70.95 372.80 71.00 372.35
  Q 71.10 371.44 71.49 372.27
  Q 71.57 372.44 71.73 372.53
  Q 72.76 373.12 72.07 372.16
  Q 71.29 371.05 70.64 369.63
  Q 70.03 368.26 69.08 367.09
  Q 66.80 364.26 64.75 361.28
  Q 64.19 360.46 64.07 359.62
  Q 63.93 358.71 63.47 357.97
  Q 62.78 356.84 62.20 355.53
  Q 61.13 353.14 59.56 351.13
  Q 59.47 351.03 59.41 350.91
  Q 59.32 350.71 59.11 350.68
  Q 58.65 350.62 58.79 351.06
  Q 59.06 351.94 58.45 352.10"
/>
<path stroke="#101013" vector-effect="non-scaling-stroke" d="
  M 58.45 352.10
  L 57.33 349.30
  Q 57.13 348.79 57.14 348.25
  Q 57.20 346.61 56.23 345.37
  Q 55.95 345.01 55.93 344.54
  Q 55.90 344.02 55.62 343.57
  Q 53.75 340.54 52.69 337.16
  C 52.38 336.16 51.41 335.65 51.30 334.49
  Q 50.97 331.31 49.22 328.78
  Q 48.91 328.32 48.82 327.77
  Q 48.58 326.17 47.55 324.90
  C 47.00 324.21 46.83 323.74 46.92 322.91
  A 0.95 0.95 0.0 0 0 46.49 322.00
  Q 45.56 321.38 45.30 320.30
  Q 45.11 319.49 44.76 318.72
  Q 43.93 316.88 44.17 314.79
  Q 44.20 314.47 43.90 314.37
  Q 43.53 314.25 43.39 313.89
  Q 42.66 312.04 42.61 310.19
  Q 42.59 309.78 42.37 309.44
  C 41.72 308.42 42.11 307.35 41.23 306.34
  Q 40.93 306.00 40.80 305.56
  Q 39.28 300.71 39.08 295.11
  A 1.85 1.83 -66.5 0 0 38.64 293.97
  C 38.24 293.51 38.02 293.12 38.10 292.47
  Q 38.36 290.25 37.68 288.02
  Q 37.05 285.93 36.65 283.55"
/>
<path stroke="#18191f" vector-effect="non-scaling-stroke" d="
  M 38.25 216.45
  Q 39.89 212.18 42.29 209.73
  Q 42.41 209.61 42.39 209.44
  Q 42.37 209.31 42.38 209.17
  Q 42.42 208.69 42.80 208.39
  Q 44.29 207.25 44.91 205.62
  Q 46.69 201.01 47.53 196.38
  Q 47.89 194.41 48.70 192.58
  Q 52.07 184.92 53.30 176.93
  Q 53.37 176.46 53.76 176.19
  Q 55.26 175.16 55.09 173.26
  Q 55.04 172.73 55.32 172.27
  Q 56.45 170.40 57.26 168.34
  Q 58.32 165.66 59.77 163.09
  Q 60.85 161.17 61.45 159.18
  Q 62.17 156.78 64.30 154.80
  Q 65.06 154.09 65.73 151.61
  Q 65.98 150.69 66.46 149.99
  Q 66.96 149.26 67.43 148.49
  Q 68.14 147.34 68.60 145.98
  Q 69.53 143.29 70.90 141.27
  Q 71.29 140.69 71.68 140.11
  Q 72.77 138.50 72.96 137.01
  Q 73.05 136.36 73.50 135.88
  Q 74.65 134.64 75.52 133.28
  Q 76.96 131.00 76.58 127.81
  Q 76.50 127.20 76.89 126.72
  Q 77.17 126.38 77.31 125.97
  Q 77.53 125.32 76.90 125.59
  Q 75.58 126.15 75.38 127.49
  Q 75.33 127.81 75.59 127.97
  Q 76.07 128.26 75.53 128.42
  Q 75.36 128.48 75.42 128.65
  A 3.44 3.44 0.0 0 1 74.39 132.61
  Q 70.53 135.74 70.48 141.06
  Q 70.48 141.50 70.17 141.83
  Q 69.62 142.41 69.56 143.18
  Q 69.52 143.77 69.11 144.19
  Q 67.80 145.52 67.62 147.21
  C 67.51 148.31 66.93 148.95 66.19 149.67
  Q 65.84 150.02 65.67 150.50
  Q 64.75 153.17 62.72 155.24
  Q 61.18 156.82 60.79 158.53
  Q 60.41 160.17 59.18 161.56
  Q 58.07 162.81 56.74 163.91
  Q 56.35 164.23 56.36 164.74
  Q 56.40 167.07 54.98 168.51
  Q 54.64 168.84 54.51 169.30
  Q 53.65 172.33 52.45 175.46
  C 52.05 176.51 52.00 177.82 51.89 178.96
  Q 51.84 179.44 51.41 179.67
  Q 51.12 179.83 50.89 180.07
  Q 50.52 180.49 50.60 181.04
  Q 50.89 182.87 49.56 183.64
  Q 49.18 183.86 49.11 184.28
  L 48.38 188.30
  Q 48.28 188.85 47.83 189.17
  Q 47.35 189.51 46.83 189.63
  Q 46.37 189.74 46.18 190.16
  L 45.54 191.56
  Q 45.36 191.95 44.95 191.86
  Q 44.67 191.80 44.40 191.89
  Q 43.85 192.08 43.86 192.65
  Q 43.88 194.33 42.79 195.22"
/>
<path stroke="#18191f" vector-effect="non-scaling-stroke" d="
  M 52.41 166.58
  Q 54.68 165.44 55.03 162.46
  A 1.23 1.23 0.0 0 1 55.41 161.70
  Q 58.23 159.06 59.82 155.94
  Q 60.65 154.31 60.57 152.40
  Q 60.56 152.21 60.38 152.26
  Q 60.33 152.28 60.29 152.31
  Q 59.88 152.57 60.08 152.09
  Q 60.23 151.72 60.03 151.20"
/>
<path stroke="#18191f" vector-effect="non-scaling-stroke" d="
  M 98.47 98.47
  C 99.90 98.06 100.23 96.80 101.48 96.35
  Q 101.83 96.23 102.01 95.91
  Q 102.59 94.89 103.66 94.40
  Q 104.02 94.24 104.21 93.91
  Q 104.99 92.57 106.32 91.75
  Q 107.55 91.00 108.48 89.98
  Q 111.31 86.91 114.33 84.72
  Q 116.00 83.51 117.39 82.28
  Q 118.68 81.15 120.36 80.38
  Q 121.99 79.64 123.36 78.82
  Q 123.81 78.56 124.09 78.12
  Q 124.87 76.96 126.19 76.76
  Q 126.79 76.67 127.29 76.33
  Q 128.29 75.65 129.51 75.26
  Q 130.76 74.88 131.89 74.30
  Q 135.60 72.42 139.64 70.72
  Q 141.07 70.11 142.37 69.12
  Q 143.70 68.09 144.78 66.93
  Q 145.94 65.68 147.37 65.43
  A 1.59 1.57 -70.9 0 0 148.16 65.04
  Q 150.34 63.06 153.23 62.39
  Q 156.74 61.59 159.47 59.76
  Q 161.14 58.63 163.22 57.87
  Q 166.09 56.83 168.49 55.21
  C 169.44 54.57 170.28 54.73 171.03 53.75
  Q 171.23 53.48 171.54 53.36
  Q 172.70 52.89 173.89 52.84
  Q 174.35 52.82 174.62 52.44
  L 177.04 49.07
  Q 177.18 48.87 177.42 48.87
  L 177.70 48.87
  Q 177.96 48.87 178.11 48.64
  Q 178.87 47.44 180.26 47.37
  Q 180.74 47.35 181.12 47.04
  Q 181.93 46.39 183.03 46.60
  A 1.04 1.03 -50.8 0 0 183.67 46.53
  L 187.42 44.87
  Q 187.89 44.66 188.40 44.67
  Q 189.84 44.68 190.62 43.59
  A 0.78 0.77 -63.9 0 1 191.46 43.30
  Q 193.20 43.80 194.23 42.72
  Q 194.53 42.40 194.96 42.42
  Q 197.99 42.52 198.27 40.90"
/>
<path stroke="#080a0e" vector-effect="non-scaling-stroke" d="
  M 58.45 352.10
  Q 58.59 353.64 59.57 355.01
  Q 60.93 356.89 61.24 357.54
  Q 62.37 359.96 63.49 362.40
  Q 64.15 363.85 65.12 364.80
  Q 66.35 366.02 67.04 367.57
  Q 67.18 367.88 67.10 368.21
  Q 67.01 368.57 67.35 368.67
  Q 67.81 368.82 67.97 369.27
  L 68.87 371.86
  Q 69.06 372.38 69.50 372.71
  Q 70.23 373.25 70.01 374.11
  Q 69.89 374.59 70.15 375.00
  Q 70.60 375.72 70.40 376.35"
/>
<path stroke="#0b0c11" stroke-opacity="0.847" vector-effect="non-scaling-stroke" d="
  M 291.51 37.38
  Q 292.44 38.81 295.87 39.05
  Q 300.02 39.33 303.86 40.86
  Q 304.91 41.28 306.46 42.45
  Q 307.78 43.44 309.10 44.05
  Q 314.15 46.38 319.99 48.16
  Q 325.91 49.97 333.28 52.76
  Q 337.51 54.37 341.73 55.85
  Q 341.81 55.88 341.88 55.84
  Q 341.97 55.79 341.93 55.70
  Q 341.89 55.61 341.81 55.56
  Q 340.16 54.51 338.46 53.55
  Q 337.10 52.78 334.91 52.00
  Q 333.35 51.44 331.82 50.76
  Q 330.96 50.37 329.96 50.25
  Q 329.08 50.14 328.48 49.52
  Q 328.08 49.11 327.50 49.08
  Q 325.63 49.01 324.02 48.17
  Q 322.50 47.38 320.86 46.97
  Q 316.67 45.94 312.92 44.02
  Q 312.72 43.91 312.49 43.90
  Q 312.27 43.90 312.05 43.89
  Q 311.74 43.89 311.44 43.76
  Q 309.18 42.78 307.19 41.39
  Q 306.70 41.05 306.13 41.22
  Q 305.69 41.35 305.36 40.96
  Q 304.99 40.52 305.55 40.68
  Q 307.77 41.30 309.54 42.01
  Q 311.33 42.72 313.11 42.64
  Q 313.66 42.61 314.11 42.94
  Q 315.20 43.74 316.15 44.50
  Q 317.38 45.47 318.99 45.41
  Q 320.32 45.36 321.41 45.87
  Q 322.84 46.55 324.09 47.72
  Q 324.46 48.06 324.95 48.15
  Q 327.28 48.56 329.49 49.19
  Q 330.54 49.49 331.27 50.20
  A 1.44 1.42 -25.2 0 0 332.40 50.60
  Q 334.03 50.43 335.42 51.34
  Q 338.63 53.40 342.20 53.96
  Q 342.46 54.00 342.64 54.20
  Q 343.49 55.11 344.64 55.48
  Q 347.81 56.51 350.37 58.30
  Q 354.23 61.00 358.09 61.83
  Q 358.53 61.92 358.80 62.28
  Q 359.78 63.57 361.64 63.58
  Q 362.16 63.58 362.62 63.83
  L 370.80 68.19
  Q 371.06 68.33 371.26 68.54
  Q 371.54 68.84 371.98 68.85
  Q 372.47 68.85 372.89 69.12
  Q 374.12 69.90 375.44 70.75
  Q 376.25 71.27 377.14 71.61
  Q 378.09 71.97 378.83 72.69
  Q 379.46 73.30 379.96 73.45
  Q 380.63 73.66 381.35 73.72"
/>
<path stroke="#0b0c11" stroke-opacity="0.847" vector-effect="non-scaling-stroke" d="
  M 442.51 139.21
  Q 442.66 140.17 442.52 140.94
  Q 442.40 141.56 441.83 141.31
  Q 441.65 141.23 441.46 141.16
  Q 440.44 140.79 441.14 141.61
  Q 442.05 142.67 442.93 143.63
  Q 443.76 144.53 444.19 145.59
  Q 445.17 147.99 446.69 150.12
  Q 446.96 150.51 447.06 150.96
  Q 447.19 151.53 447.61 151.89
  Q 448.19 152.40 448.29 153.29
  Q 448.31 153.49 448.01 153.41
  A 0.10 0.10 0.0 0 0 447.91 153.56
  Q 448.46 154.34 448.25 155.50
  Q 448.14 156.11 448.60 156.52
  Q 449.10 156.97 449.16 157.59
  Q 449.22 158.23 449.76 158.58
  Q 450.01 158.74 450.30 158.56
  A 0.51 0.50 55.6 0 1 450.97 158.69
  Q 451.33 159.19 451.48 159.77
  Q 451.64 160.44 452.20 160.03
  Q 452.63 159.71 453.13 159.59
  Q 453.87 159.42 453.61 160.14
  Q 453.41 160.69 452.80 160.83
  A 0.57 0.57 0.0 0 0 452.38 161.51
  L 452.87 163.53
  Q 452.98 164.00 453.45 164.12
  Q 454.39 164.36 455.13 163.74
  Q 455.43 163.49 455.59 163.85
  Q 455.93 164.62 455.18 165.37
  Q 454.79 165.75 455.25 166.04
  Q 455.55 166.23 455.24 166.51
  Q 454.89 166.82 454.88 167.29
  L 454.88 170.21
  A 1.19 1.18 -66.8 0 0 455.20 171.02
  L 455.61 171.45
  A 1.27 1.25 -72.5 0 1 455.94 172.09
  Q 456.55 174.97 458.61 177.03
  Q 458.72 177.13 458.86 177.13
  Q 459.03 177.12 459.20 177.11
  A 0.23 0.23 0.0 0 1 459.41 177.46
  Q 459.25 177.75 459.51 177.96
  Q 460.07 178.41 460.52 177.85
  Q 460.72 177.61 460.99 177.45
  Q 461.13 177.37 461.09 177.21
  Q 461.06 177.04 460.93 177.00
  Q 460.24 176.77 460.96 176.64
  Q 461.32 176.58 461.76 176.55"
/>
<path stroke="#0b0c11" stroke-opacity="0.847" vector-effect="non-scaling-stroke" d="
  M 461.96 177.32
  Q 461.60 178.25 462.08 178.95
  Q 462.59 179.68 461.76 179.38
  Q 461.60 179.32 461.42 179.34
  Q 460.90 179.39 461.14 179.86
  Q 461.42 180.40 462.02 180.80
  A 0.03 0.03 0.0 0 1 461.99 180.86
  Q 461.83 180.83 461.68 180.91
  Q 461.32 181.13 461.57 181.46
  Q 461.92 181.91 462.05 182.59
  Q 462.15 183.07 461.75 183.35
  Q 460.93 183.95 461.67 185.11
  Q 462.65 186.64 462.83 188.62
  Q 462.86 188.95 463.05 189.22
  Q 463.37 189.67 463.89 189.75
  Q 464.39 189.83 464.38 190.34
  Q 464.33 192.79 465.08 194.16
  Q 466.33 196.47 468.76 197.40"
/>
<path stroke="#080a0e" vector-effect="non-scaling-stroke" d="
  M 474.78 227.93
  Q 474.03 228.26 473.68 227.88
  Q 473.48 227.67 473.19 227.66
  Q 473.01 227.66 472.89 227.78
  Q 472.45 228.19 472.58 228.77
  Q 473.03 230.87 472.76 232.57
  Q 472.49 234.24 472.56 236.01
  Q 472.70 239.79 472.65 243.29
  Q 472.63 244.74 472.87 246.27
  Q 473.08 247.66 473.18 249.03
  C 473.32 251.12 474.34 253.26 473.73 255.47
  Q 473.44 256.52 473.23 257.61
  Q 472.66 260.53 471.90 263.40
  Q 471.07 266.62 470.92 269.24
  Q 470.75 272.27 470.43 275.25
  Q 470.37 275.79 470.07 276.26
  Q 469.59 277.00 469.65 277.81
  Q 469.68 278.33 469.29 278.66
  Q 468.81 279.08 468.83 279.70
  Q 468.85 280.23 468.73 280.77
  Q 468.02 284.01 467.51 287.47
  A 0.67 0.66 -87.3 0 1 466.89 288.04
  Q 466.47 288.08 466.26 288.42
  Q 465.91 288.98 465.85 289.65
  Q 465.69 291.50 465.55 293.48
  Q 465.51 293.96 465.25 294.36
  Q 464.85 294.98 465.31 295.58
  C 466.21 296.71 466.16 298.50 465.00 299.36
  Q 464.63 299.64 464.44 300.07
  C 463.69 301.73 462.74 302.74 460.78 303.06
  Q 457.08 303.66 453.74 305.39
  A 0.90 0.89 -49.6 0 1 453.06 305.45
  L 449.03 304.18
  A 2.73 2.73 0.0 0 0 445.52 306.27
  Q 444.53 311.50 442.40 317.12
  Q 439.58 324.54 437.00 331.55
  Q 435.28 336.22 432.36 341.87
  Q 428.59 349.16 427.20 351.51
  Q 399.58 397.96 352.87 425.56
  Q 337.03 434.91 320.84 440.41
  C 309.50 444.26 298.84 447.48 287.25 449.55
  Q 284.03 450.12 281.25 450.18"
/>
<path stroke="#1d1e24" vector-effect="non-scaling-stroke" d="
  M 281.25 450.18
  Q 280.33 448.91 279.14 447.82
  Q 277.93 446.72 276.99 445.53
  Q 271.44 438.49 264.86 431.59
  C 235.32 400.59 206.33 369.48 177.21 338.14
  Q 172.50 333.08 168.38 328.29
  C 163.39 322.51 158.52 316.79 153.72 310.71
  Q 150.73 306.91 147.55 303.28
  Q 146.99 302.65 146.77 302.06
  Q 146.02 300.13 147.82 300.68"
/>
<path stroke="#1c5871" vector-effect="non-scaling-stroke" d="
  M 147.82 300.68
  Q 159.73 312.78 171.26 325.23
  Q 179.38 334.00 181.84 336.16
  Q 187.28 340.91 194.98 341.55
  Q 207.68 342.60 215.61 333.02"
/>
<path stroke="#1d1e24" vector-effect="non-scaling-stroke" d="
  M 215.61 333.02
  Q 217.56 332.03 217.06 331.46"
/>
<path stroke="#1c5871" vector-effect="non-scaling-stroke" d="
  M 217.06 331.46
  L 253.22 275.69
  Q 253.49 275.26 253.76 275.69
  Q 269.50 300.68 287.21 328.02
  Q 291.00 333.87 294.26 336.68
  Q 299.71 341.38 309.19 341.92
  Q 318.90 342.48 326.12 335.68
  C 333.26 328.96 339.20 321.57 346.19 314.59
  Q 357.12 303.66 367.34 293.52
  Q 371.77 289.12 373.63 283.40
  Q 374.82 279.75 374.83 272.51
  Q 374.86 252.71 374.65 233.00
  Q 374.59 227.44 372.68 222.10"
/>
<path stroke="#1d1e24" vector-effect="non-scaling-stroke" d="
  M 372.68 222.10
  Q 373.14 221.26 374.19 222.45
  C 375.32 223.72 375.39 225.58 376.57 226.98
  Q 382.07 233.55 387.06 238.93
  C 392.53 244.81 397.83 250.79 403.32 256.62
  Q 422.01 276.49 440.99 296.15
  C 442.54 297.74 443.79 299.55 445.33 301.19
  A 0.89 0.89 0.0 0 0 446.73 301.05
  Q 447.18 300.33 447.37 299.54
  Q 450.82 285.40 451.72 271.55
  Q 452.22 263.99 452.16 252.14
  Q 452.11 241.67 451.07 232.69
  Q 447.57 202.60 433.80 173.20
  Q 428.36 161.59 423.44 153.13"
/>
<path stroke="#29627b" vector-effect="non-scaling-stroke" d="
  M 372.68 222.10
  C 371.34 220.22 370.49 218.28 368.78 216.61
  Q 362.13 210.10 353.20 200.56
  C 346.90 193.82 340.21 187.39 333.90 180.27
  Q 330.35 176.25 326.20 172.15
  Q 321.24 167.24 315.42 166.35
  C 307.14 165.08 298.56 166.65 292.79 172.64
  Q 289.03 176.54 284.14 184.58
  Q 270.84 206.43 257.50 226.49
  Q 255.65 229.27 253.35 231.81
  A 0.63 0.63 0.0 0 1 252.35 231.72
  L 219.13 179.52
  A 1.28 1.28 0.0 0 0 217.50 179.06
  C 215.76 179.91 214.18 180.95 212.90 182.43
  Q 209.15 186.74 204.57 190.95
  A 2.16 2.15 -37.1 0 0 204.19 193.65
  Q 222.97 224.54 242.47 253.60
  Q 242.75 254.01 242.46 254.42
  Q 238.68 259.54 234.86 265.55
  Q 218.65 291.05 202.31 316.22
  A 1.98 1.98 0.0 0 0 202.66 318.78
  L 217.06 331.46"
/>
<path stroke="#29627b" vector-effect="non-scaling-stroke" d="
  M 215.61 333.02
  L 202.38 320.81
  Q 201.16 319.68 199.66 320.39
  L 196.84 321.72
  Q 196.34 321.96 195.85 321.72
  Q 193.34 320.52 191.50 318.56
  Q 174.64 300.68 157.32 282.54
  C 153.50 278.54 153.54 275.35 153.51 269.25
  Q 153.41 252.56 153.58 234.57
  C 153.62 230.64 154.81 228.14 157.35 225.48
  Q 175.17 206.81 191.91 188.95
  C 196.15 184.43 198.32 185.70 202.15 189.52
  Q 202.76 190.12 203.41 189.56
  Q 207.35 186.16 210.80 182.04
  C 212.28 180.27 213.78 179.16 215.58 177.82
  A 1.57 1.56 54.0 0 0 215.92 175.67
  Q 211.43 169.24 204.93 167.30
  Q 190.52 163.00 180.09 173.97
  Q 158.85 196.29 140.13 215.57
  Q 134.93 220.93 133.44 228.00
  Q 133.01 230.08 132.98 240.99
  Q 132.94 259.11 133.15 276.75
  C 133.27 287.42 139.99 293.14 147.82 300.68"
/>
<path stroke="#151418" vector-effect="non-scaling-stroke" d="
  M 281.25 450.18
  Q 237.62 456.35 197.63 444.39
  Q 162.60 433.91 133.39 410.63
  Q 124.58 403.61 118.93 398.39"
/>
<path stroke="#080a0e" vector-effect="non-scaling-stroke" d="
  M 84.07 389.99
  L 84.93 392.78
  Q 85.07 393.24 85.51 393.41
  Q 87.31 394.09 88.70 395.91"
/>
<path stroke="#010102" stroke-opacity="0.847" vector-effect="non-scaling-stroke" d="
  M 468.97 312.78
  Q 468.11 312.68 467.53 313.72
  Q 467.23 314.27 466.99 313.70
  Q 466.97 313.64 466.92 313.63
  Q 466.32 313.52 466.06 314.06
  Q 465.22 315.80 464.66 317.68
  Q 464.49 318.23 464.09 318.64
  L 463.26 319.48
  A 0.49 0.49 0.0 0 0 463.12 319.77
  C 462.86 321.76 462.84 323.74 462.01 325.61
  Q 460.02 330.10 457.92 334.52
  Q 456.29 337.93 454.57 341.89"
/>
<path stroke="#080a0e" vector-effect="non-scaling-stroke" d="
  M 454.57 341.89
  L 452.55 344.12
  Q 451.93 344.80 452.15 343.91
  Q 452.65 341.87 453.82 340.23
  Q 453.90 340.11 453.88 339.97
  Q 453.84 339.78 453.86 339.61
  A 1.46 1.11 -28.1 0 1 454.19 338.89
  Q 456.10 336.69 456.64 333.96
  Q 456.74 333.47 457.10 333.12
  Q 457.42 332.82 457.43 332.39
  Q 457.47 331.11 458.50 330.40
  Q 458.91 330.12 459.02 329.65
  L 459.74 326.77"
/>
<path stroke="#080a0e" vector-effect="non-scaling-stroke" d="
  M 459.74 326.77
  Q 461.16 323.49 461.17 320.14
  Q 461.13 320.12 461.21 320.14
  Q 461.23 320.15 461.23 320.18
  Q 460.46 323.44 459.74 326.77"
/>
<path stroke="#080a0e" vector-effect="non-scaling-stroke" d="
  M 459.74 326.77
  Q 458.31 330.46 456.24 333.95
  C 455.42 335.34 455.62 337.38 454.01 338.57
  Q 453.59 338.89 453.43 339.39
  Q 453.02 340.67 452.16 341.63
  A 2.05 2.01 -17.8 0 0 451.70 342.50
  Q 451.06 345.26 449.83 347.70
  Q 449.39 348.57 448.72 349.12
  Q 447.90 349.79 447.80 351.08
  A 1.55 1.54 -17.2 0 1 447.24 352.13
  Q 446.03 353.11 445.48 354.58
  Q 444.23 357.89 442.62 360.51
  Q 440.05 364.72 436.62 368.60
  Q 435.91 369.40 434.23 371.49
  Q 433.05 372.95 431.69 374.25
  Q 430.04 375.82 429.29 377.41
  C 428.24 379.64 425.97 383.06 423.64 384.24
  Q 422.72 384.71 422.45 385.75
  Q 422.32 386.23 421.89 386.47
  Q 420.65 387.17 420.09 388.45
  C 419.34 390.18 417.78 391.60 416.43 392.88
  Q 416.07 393.22 416.07 393.72
  Q 416.06 394.01 415.80 394.13
  Q 414.99 394.48 414.64 395.31
  A 2.70 2.68 -10.3 0 1 414.06 396.14
  Q 406.77 403.26 399.98 410.51
  Q 399.55 410.97 399.12 411.38
  Q 394.89 415.48 389.92 419.66
  Q 389.68 419.87 389.37 419.99
  Q 388.73 420.24 388.62 420.90
  A 1.03 1.00 74.3 0 1 388.31 421.47
  C 386.75 422.83 384.93 423.79 383.47 425.27
  Q 381.47 427.28 378.83 428.92
  C 377.32 429.87 376.25 431.09 374.83 432.08
  Q 373.31 433.13 371.91 434.46
  Q 370.18 436.11 368.13 437.38
  Q 364.25 439.78 360.36 441.92
  Q 359.10 442.62 357.80 443.10
  Q 356.49 443.59 355.24 444.39
  Q 352.85 445.91 350.23 446.91
  Q 349.36 447.25 348.74 447.97
  Q 347.91 448.95 346.68 448.93
  A 0.98 0.98 0.0 0 0 346.19 449.04
  L 339.61 452.35
  Q 339.33 452.50 339.12 452.74
  Q 339.03 452.86 338.94 452.96
  Q 338.59 453.35 338.07 453.39
  Q 336.91 453.48 335.84 453.87
  Q 335.59 453.96 334.34 454.87
  Q 333.50 455.48 332.50 455.39
  Q 331.98 455.34 331.55 455.64
  Q 329.49 457.08 327.09 457.92
  Q 326.68 458.06 326.34 458.38
  A 1.53 1.52 12.8 0 1 325.81 458.71
  Q 323.12 459.68 320.87 461.18
  A 1.62 1.57 -61.6 0 1 320.02 461.45
  Q 319.08 461.46 318.39 462.04
  C 316.83 463.34 314.69 463.85 312.68 463.86
  A 1.34 1.34 0.0 0 0 311.90 464.11
  Q 310.76 464.91 309.52 465.30
  Q 307.33 465.99 305.78 468.08
  Q 305.62 468.29 305.62 468.56
  L 305.62 469.02
  Q 305.62 469.61 305.04 469.62
  C 304.24 469.64 303.70 469.79 302.67 469.88
  Q 301.60 469.97 301.04 471.01"
/>
<path stroke="#080a0e" vector-effect="non-scaling-stroke" d="
  M 167.49 459.69
  Q 167.34 458.68 166.29 458.09
  Q 165.85 457.84 165.36 457.90
  Q 164.62 457.99 164.26 457.61
  Q 161.76 454.95 158.89 450.51
  Q 158.62 450.09 158.16 449.89
  Q 157.26 449.50 156.48 448.83
  Q 155.55 448.03 154.38 447.40
  Q 148.79 444.39 142.89 441.38
  Q 142.38 441.12 142.10 440.62
  Q 141.10 438.79 138.56 438.42
  A 1.57 1.57 0.0 0 1 137.62 437.92
  Q 137.07 437.31 136.23 437.20
  Q 135.63 437.12 135.12 436.78
  L 126.72 431.21
  Q 126.18 430.85 125.52 430.85
  Q 124.96 430.85 124.63 430.39
  Q 124.28 429.89 123.69 429.78
  Q 121.77 429.43 120.63 427.66
  Q 120.34 427.21 119.82 427.09
  Q 118.98 426.89 118.41 426.17
  Q 117.76 425.35 116.94 424.72
  Q 113.84 422.35 112.91 421.48
  Q 112.09 420.71 111.92 419.33
  Q 111.85 418.86 111.53 418.51
  L 109.66 416.45
  Q 109.39 416.16 109.00 416.12
  Q 107.45 415.99 106.32 414.38
  Q 104.75 412.15 102.62 410.70
  Q 101.79 410.14 101.21 409.39
  Q 100.58 408.59 99.61 408.35
  Q 99.26 408.27 99.06 407.97
  Q 98.59 407.24 97.81 406.97
  Q 97.43 406.84 97.19 406.52
  Q 95.37 404.08 94.63 401.19
  Q 94.60 401.06 94.71 401.13
  Q 94.75 401.15 94.78 401.22
  Q 95.42 403.04 96.81 404.24"
/>
<path stroke="#080a0e" vector-effect="non-scaling-stroke" d="
  M 97.79 404.71
  Q 97.61 405.27 97.87 405.44
  Q 99.95 406.80 101.83 408.40
  Q 102.37 408.85 103.35 409.26
  Q 104.24 409.62 104.94 410.26
  Q 105.30 410.59 105.79 410.66
  Q 107.52 410.89 108.57 410.01"
/>
<path stroke="#0b0c11" stroke-opacity="0.847" vector-effect="non-scaling-stroke" d="
  M 321.96 466.05
  Q 322.26 464.78 323.39 464.46
  Q 323.87 464.33 324.21 463.96
  Q 325.21 462.89 326.44 462.32
  Q 327.48 461.84 328.51 461.28
  Q 331.12 459.89 334.20 458.63
  Q 340.50 456.06 345.67 453.91
  Q 345.88 453.83 345.99 453.64
  Q 346.20 453.27 346.64 453.22
  Q 348.41 453.02 349.45 451.64
  Q 349.75 451.25 350.23 451.17
  Q 351.06 451.03 351.80 450.67
  Q 362.48 445.48 371.72 439.57
  Q 376.84 436.30 381.69 432.47
  Q 382.72 431.65 383.72 430.73
  Q 384.61 429.93 385.76 429.30
  Q 387.67 428.26 389.28 426.78
  Q 393.48 422.92 397.70 419.37
  Q 400.29 417.21 404.82 412.38
  C 409.53 407.35 414.64 402.47 419.51 397.60
  Q 421.35 395.77 422.83 393.84
  Q 424.49 391.67 426.74 390.48
  Q 426.82 390.43 426.89 390.49
  Q 427.00 390.59 427.13 390.58
  Q 427.42 390.57 427.52 390.30
  L 428.19 388.46
  Q 428.36 387.99 428.84 387.82
  Q 429.18 387.70 429.18 387.29
  Q 429.18 386.75 429.51 386.32
  Q 431.20 384.19 432.05 381.92
  Q 432.40 380.97 433.18 380.24
  Q 434.18 379.30 434.87 378.17
  Q 435.78 376.68 437.02 375.36
  Q 438.98 373.28 439.99 370.93
  Q 440.52 369.70 441.61 368.87
  A 1.24 1.15 82.4 0 0 442.02 368.29
  Q 442.19 367.76 442.15 367.17
  A 0.53 0.53 0.0 0 1 442.52 366.64
  Q 443.74 366.27 443.97 365.00
  Q 444.12 364.18 444.55 363.42
  Q 445.06 362.52 445.64 361.66
  Q 445.88 361.29 445.90 360.85
  Q 445.93 359.48 445.79 358.00
  Q 445.75 357.62 446.16 357.56
  Q 446.54 357.51 446.70 357.16
  Q 447.14 356.16 448.23 356.17
  Q 448.74 356.17 449.03 355.74
  L 450.67 353.31
  Q 451.02 352.79 450.86 352.17
  Q 450.62 351.31 451.33 350.96
  A 0.81 0.81 0.0 0 0 451.79 350.17
  Q 451.57 347.34 453.49 345.49
  Q 453.99 345.01 453.92 344.32
  Q 453.86 343.79 454.34 343.54
  Q 454.76 343.33 454.98 342.91
  Q 456.59 339.87 458.06 337.01
  C 458.41 336.33 458.54 335.48 459.14 335.05
  Q 459.49 334.81 459.60 334.40
  Q 459.65 334.23 459.67 334.04
  Q 459.72 333.56 460.02 333.16
  Q 461.95 330.69 462.14 327.50
  Q 462.17 326.99 462.75 326.84
  A 0.55 0.55 0.0 0 0 463.14 326.18
  Q 463.01 325.68 463.31 325.28
  Q 463.70 324.77 463.61 324.15
  C 463.42 322.69 463.79 320.99 465.00 320.04
  Q 465.64 319.54 466.11 318.84
  Q 466.36 318.46 466.35 318.01
  Q 466.32 316.82 467.23 315.94
  Q 467.46 315.71 467.15 315.80
  Q 466.81 315.91 466.56 316.21
  A 0.88 0.80 72.6 0 0 466.36 316.64
  Q 466.08 318.37 464.80 319.46
  A 3.19 3.16 -21.0 0 0 463.68 321.94
  Q 463.72 324.60 462.27 326.89
  C 461.73 327.75 461.53 328.71 461.30 329.69
  Q 461.19 330.16 460.95 330.58
  L 454.57 341.89"
/>
<path stroke="#0b0c11" stroke-opacity="0.847" vector-effect="non-scaling-stroke" d="
  M 436.98 133.97
  Q 436.79 134.27 437.09 134.58
  Q 437.45 134.95 437.60 134.46
  Q 437.86 133.63 437.10 132.88
  A 0.40 0.40 0.0 0 0 436.42 133.10
  Q 436.35 133.54 436.81 133.60
  Q 437.19 133.65 436.98 133.97"
/>
<path stroke="#0b0c11" stroke-opacity="0.847" vector-effect="non-scaling-stroke" d="
  M 465.54 195.33
  Q 465.50 195.19 465.31 195.18
  Q 464.82 195.18 464.93 195.65
  Q 465.15 196.59 465.91 197.31
  Q 466.69 198.05 466.46 197.00
  Q 466.28 196.19 465.72 195.63
  Q 465.59 195.50 465.54 195.33"
/>
<path stroke="#29627b" vector-effect="non-scaling-stroke" d="
  M 222.59 246.99
  A 0.43 0.43 0.0 0 1 222.16 246.51
  L 224.49 228.48
  A 0.43 0.43 0.0 0 0 224.06 227.99
  L 218.93 228.00
  A 0.43 0.43 0.0 0 0 218.51 228.37
  L 216.00 246.63
  A 0.43 0.43 0.0 0 1 215.58 247.00
  L 206.15 247.00
  A 0.43 0.43 0.0 0 1 205.72 246.51
  L 208.09 228.48
  A 0.43 0.43 0.0 0 0 207.66 227.99
  L 202.60 228.00
  A 0.43 0.43 0.0 0 0 202.17 228.37
  L 199.74 246.62
  A 0.43 0.43 0.0 0 1 199.31 246.99
  L 190.67 247.01
  A 0.43 0.43 0.0 0 0 190.24 247.44
  L 190.22 252.57
  A 0.43 0.43 0.0 0 0 190.65 253.00
  L 198.23 253.00
  A 0.43 0.43 0.0 0 1 198.66 253.48
  L 196.92 267.10
  A 0.43 0.43 0.0 0 1 196.49 267.48
  L 188.10 267.47
  A 0.43 0.43 0.0 0 0 187.67 267.90
  L 187.67 273.11
  A 0.43 0.43 0.0 0 0 188.10 273.54
  L 195.42 273.53
  A 0.43 0.43 0.0 0 1 195.85 274.02
  L 193.38 292.50
  A 0.43 0.43 0.0 0 0 193.81 292.99
  L 199.08 293.00
  A 0.43 0.43 0.0 0 0 199.51 292.63
  L 201.97 273.90
  A 0.43 0.43 0.0 0 1 202.40 273.53
  L 211.85 273.54
  A 0.43 0.43 0.0 0 1 212.28 274.03
  L 209.82 292.51
  A 0.43 0.43 0.0 0 0 210.25 293.00
  L 215.48 292.99
  A 0.43 0.43 0.0 0 0 215.91 292.62
  L 218.39 273.89
  A 0.43 0.43 0.0 0 1 218.82 273.51
  L 227.57 273.59
  A 0.43 0.43 0.0 0 0 228.00 273.16
  L 228.00 267.87
  A 0.43 0.43 0.0 0 0 227.57 267.44
  L 219.86 267.49
  A 0.43 0.43 0.0 0 1 219.43 267.01
  L 221.09 253.38
  A 0.43 0.43 0.0 0 1 221.52 253.00
  L 229.89 252.99
  A 0.43 0.43 0.0 0 0 230.32 252.56
  L 230.35 247.44
  A 0.43 0.43 0.0 0 0 229.92 247.01
  L 222.59 246.99"
/>
<path stroke="#1c5871" vector-effect="non-scaling-stroke" d="
  M 320.17 194.87
  C 316.97 191.45 314.45 186.54 309.19 186.14
  Q 308.72 186.10 308.35 186.40
  Q 305.65 188.63 304.02 191.29
  Q 285.41 221.69 264.47 253.62
  Q 264.18 254.06 264.46 254.51
  Q 286.59 290.17 305.02 318.05
  C 308.31 323.02 310.66 321.86 314.20 318.20
  Q 332.85 298.97 351.65 279.88
  C 353.45 278.05 353.93 276.81 353.98 274.39
  Q 354.45 250.81 353.46 233.16
  C 353.34 231.05 352.80 228.73 351.26 227.18
  Q 336.42 212.29 320.17 194.87"
/>
<path stroke="#29627b" vector-effect="non-scaling-stroke" d="
  M 203.00 267.07
  A 0.35 0.35 0.0 0 0 203.35 267.47
  L 212.95 267.48
  A 0.35 0.35 0.0 0 0 213.30 267.17
  L 215.08 253.39
  A 0.35 0.35 0.0 0 0 214.73 253.00
  L 205.17 253.00
  A 0.35 0.35 0.0 0 0 204.82 253.30
  L 203.00 267.07"
/>
</g>
<path fill="#1f1f24" d="
  M 283.14 36.18
  Q 284.22 37.17 285.78 37.32
  Q 286.31 37.37 286.68 37.75
  L 288.22 39.36
  A 1.25 1.23 71.0 0 0 288.97 39.73
  Q 292.21 40.08 294.85 41.39
  Q 296.89 42.42 298.87 42.38
  Q 300.74 42.35 302.46 43.12
  Q 305.04 44.28 307.56 45.78
  Q 307.97 46.02 308.44 46.06
  Q 310.48 46.24 311.63 47.77
  Q 311.96 48.20 312.50 48.24
  Q 314.02 48.36 315.65 48.86
  C 316.73 49.18 318.06 49.18 318.98 49.74
  Q 320.01 50.37 321.12 50.76
  Q 325.45 52.25 330.15 53.69
  Q 330.86 53.90 331.38 54.34
  Q 331.95 54.81 332.54 55.27
  Q 333.52 56.04 334.67 56.39
  Q 335.74 56.71 336.59 57.37
  Q 336.98 57.67 337.48 57.65
  C 338.06 57.62 338.44 57.57 339.00 57.80
  Q 345.63 60.48 351.56 64.36
  C 353.18 65.42 355.32 65.84 357.23 66.15
  Q 357.73 66.23 358.13 66.54
  Q 359.66 67.73 361.56 68.10
  A 1.79 1.70 68.7 0 1 362.37 68.48
  Q 366.03 71.58 370.45 73.39
  Q 371.70 73.90 372.66 74.63
  Q 373.67 75.39 374.70 76.14
  Q 376.08 77.14 377.96 78.10
  Q 384.24 81.29 390.00 85.38
  Q 393.16 87.62 396.30 89.92
  Q 396.37 89.98 399.98 93.07
  Q 401.75 94.58 404.32 96.08
  A 0.45 0.38 76.3 0 1 404.43 96.16
  Q 406.91 99.03 409.15 101.74
  A 2.51 2.48 80.8 0 0 410.19 102.50
  Q 411.39 102.96 411.78 104.26
  Q 411.95 104.80 412.38 105.18
  L 414.60 107.08
  Q 414.97 107.41 414.90 107.90
  Q 414.83 108.38 415.36 108.39
  Q 415.82 108.39 416.11 108.75
  L 430.74 126.54
  A 0.98 0.95 21.7 0 1 430.94 126.99
  C 431.18 128.47 432.45 128.94 433.10 130.14
  Q 434.24 132.20 434.73 134.55
  Q 434.85 135.11 435.33 135.43
  Q 436.24 136.04 437.12 136.66
  Q 438.97 137.96 438.06 140.07
  Q 437.89 140.45 437.94 140.86
  Q 438.22 143.39 440.63 144.31
  Q 441.28 144.56 441.56 145.19
  Q 444.49 151.69 446.50 158.62
  A 0.02 0.02 0.0 0 1 446.47 158.63
  L 445.57 156.92
  Q 445.36 156.53 445.27 156.10
  Q 444.91 154.53 444.00 152.47
  Q 442.55 149.22 440.93 145.83
  Q 440.69 145.33 440.28 144.96
  L 438.10 143.00
  Q 437.76 142.70 437.59 143.12
  Q 437.22 144.00 436.52 144.41
  Q 429.46 148.50 423.44 153.13
  Q 419.96 148.35 416.17 142.66
  Q 412.39 136.99 408.64 132.37
  Q 401.91 124.08 398.99 120.92
  Q 384.84 105.66 376.80 99.68
  C 359.30 86.67 341.98 75.31 321.26 68.26
  C 310.72 64.67 300.27 61.71 289.41 59.91
  Q 279.37 58.24 277.61 58.00
  C 271.32 57.14 265.16 57.36 258.85 57.42
  C 249.94 57.52 241.09 57.15 232.21 57.97
  Q 220.86 59.02 210.43 61.55
  Q 199.53 64.20 190.37 67.16
  Q 173.46 72.62 164.11 77.77
  Q 147.52 86.91 136.88 94.54
  Q 117.51 108.41 101.64 128.79
  Q 90.71 142.83 84.01 155.28
  Q 76.74 168.80 71.91 180.94
  Q 64.89 198.61 60.47 223.55
  Q 58.82 232.92 58.56 243.57
  Q 58.10 262.61 59.47 278.74
  C 60.01 285.07 61.74 291.36 62.88 297.75
  Q 64.17 304.93 66.22 311.59
  Q 75.41 341.37 91.61 365.39
  Q 103.34 382.78 118.93 398.39
  Q 114.44 403.00 110.72 408.50
  Q 110.02 409.53 108.57 410.01
  Q 104.59 410.06 102.56 408.11
  Q 99.69 405.36 97.79 404.71
  L 96.81 404.24
  Q 96.51 402.43 95.48 401.08
  Q 95.35 400.91 94.65 399.85
  Q 94.03 398.92 93.07 398.95
  Q 92.59 398.96 92.20 398.66
  L 88.70 395.91
  Q 88.48 393.55 86.53 392.60
  Q 86.09 392.38 85.87 391.94
  Q 85.22 390.64 84.07 389.99
  L 81.70 386.86
  Q 81.43 386.50 81.28 386.08
  Q 80.58 384.00 78.49 382.80
  Q 78.08 382.57 77.90 382.14
  Q 77.44 381.09 76.83 380.20
  Q 76.08 379.09 75.56 377.85
  Q 74.47 375.24 71.60 373.95
  Q 71.17 373.75 71.06 373.29
  Q 70.95 372.80 71.00 372.35
  Q 71.10 371.44 71.49 372.27
  Q 71.57 372.44 71.73 372.53
  Q 72.76 373.12 72.07 372.16
  Q 71.29 371.05 70.64 369.63
  Q 70.03 368.26 69.08 367.09
  Q 66.80 364.26 64.75 361.28
  Q 64.19 360.46 64.07 359.62
  Q 63.93 358.71 63.47 357.97
  Q 62.78 356.84 62.20 355.53
  Q 61.13 353.14 59.56 351.13
  Q 59.47 351.03 59.41 350.91
  Q 59.32 350.71 59.11 350.68
  Q 58.65 350.62 58.79 351.06
  Q 59.06 351.94 58.45 352.10
  L 57.33 349.30
  Q 57.13 348.79 57.14 348.25
  Q 57.20 346.61 56.23 345.37
  Q 55.95 345.01 55.93 344.54
  Q 55.90 344.02 55.62 343.57
  Q 53.75 340.54 52.69 337.16
  C 52.38 336.16 51.41 335.65 51.30 334.49
  Q 50.97 331.31 49.22 328.78
  Q 48.91 328.32 48.82 327.77
  Q 48.58 326.17 47.55 324.90
  C 47.00 324.21 46.83 323.74 46.92 322.91
  A 0.95 0.95 0.0 0 0 46.49 322.00
  Q 45.56 321.38 45.30 320.30
  Q 45.11 319.49 44.76 318.72
  Q 43.93 316.88 44.17 314.79
  Q 44.20 314.47 43.90 314.37
  Q 43.53 314.25 43.39 313.89
  Q 42.66 312.04 42.61 310.19
  Q 42.59 309.78 42.37 309.44
  C 41.72 308.42 42.11 307.35 41.23 306.34
  Q 40.93 306.00 40.80 305.56
  Q 39.28 300.71 39.08 295.11
  A 1.85 1.83 -66.5 0 0 38.64 293.97
  C 38.24 293.51 38.02 293.12 38.10 292.47
  Q 38.36 290.25 37.68 288.02
  Q 37.05 285.93 36.65 283.55
  Q 33.42 249.70 38.25 216.45
  Q 39.89 212.18 42.29 209.73
  Q 42.41 209.61 42.39 209.44
  Q 42.37 209.31 42.38 209.17
  Q 42.42 208.69 42.80 208.39
  Q 44.29 207.25 44.91 205.62
  Q 46.69 201.01 47.53 196.38
  Q 47.89 194.41 48.70 192.58
  Q 52.07 184.92 53.30 176.93
  Q 53.37 176.46 53.76 176.19
  Q 55.26 175.16 55.09 173.26
  Q 55.04 172.73 55.32 172.27
  Q 56.45 170.40 57.26 168.34
  Q 58.32 165.66 59.77 163.09
  Q 60.85 161.17 61.45 159.18
  Q 62.17 156.78 64.30 154.80
  Q 65.06 154.09 65.73 151.61
  Q 65.98 150.69 66.46 149.99
  Q 66.96 149.26 67.43 148.49
  Q 68.14 147.34 68.60 145.98
  Q 69.53 143.29 70.90 141.27
  Q 71.29 140.69 71.68 140.11
  Q 72.77 138.50 72.96 137.01
  Q 73.05 136.36 73.50 135.88
  Q 74.65 134.64 75.52 133.28
  Q 76.96 131.00 76.58 127.81
  Q 76.50 127.20 76.89 126.72
  Q 77.17 126.38 77.31 125.97
  Q 77.53 125.32 76.90 125.59
  Q 75.58 126.15 75.38 127.49
  Q 75.33 127.81 75.59 127.97
  Q 76.07 128.26 75.53 128.42
  Q 75.36 128.48 75.42 128.65
  A 3.44 3.44 0.0 0 1 74.39 132.61
  Q 70.53 135.74 70.48 141.06
  Q 70.48 141.50 70.17 141.83
  Q 69.62 142.41 69.56 143.18
  Q 69.52 143.77 69.11 144.19
  Q 67.80 145.52 67.62 147.21
  C 67.51 148.31 66.93 148.95 66.19 149.67
  Q 65.84 150.02 65.67 150.50
  Q 64.75 153.17 62.72 155.24
  Q 61.18 156.82 60.79 158.53
  Q 60.41 160.17 59.18 161.56
  Q 58.07 162.81 56.74 163.91
  Q 56.35 164.23 56.36 164.74
  Q 56.40 167.07 54.98 168.51
  Q 54.64 168.84 54.51 169.30
  Q 53.65 172.33 52.45 175.46
  C 52.05 176.51 52.00 177.82 51.89 178.96
  Q 51.84 179.44 51.41 179.67
  Q 51.12 179.83 50.89 180.07
  Q 50.52 180.49 50.60 181.04
  Q 50.89 182.87 49.56 183.64
  Q 49.18 183.86 49.11 184.28
  L 48.38 188.30
  Q 48.28 188.85 47.83 189.17
  Q 47.35 189.51 46.83 189.63
  Q 46.37 189.74 46.18 190.16
  L 45.54 191.56
  Q 45.36 191.95 44.95 191.86
  Q 44.67 191.80 44.40 191.89
  Q 43.85 192.08 43.86 192.65
  Q 43.88 194.33 42.79 195.22
  Q 46.45 180.36 52.41 166.58
  Q 54.68 165.44 55.03 162.46
  A 1.23 1.23 0.0 0 1 55.41 161.70
  Q 58.23 159.06 59.82 155.94
  Q 60.65 154.31 60.57 152.40
  Q 60.56 152.21 60.38 152.26
  Q 60.33 152.28 60.29 152.31
  Q 59.88 152.57 60.08 152.09
  Q 60.23 151.72 60.03 151.20
  Q 59.90 151.06 60.06 150.75
  Q 75.64 121.56 98.47 98.47
  C 99.90 98.06 100.23 96.80 101.48 96.35
  Q 101.83 96.23 102.01 95.91
  Q 102.59 94.89 103.66 94.40
  Q 104.02 94.24 104.21 93.91
  Q 104.99 92.57 106.32 91.75
  Q 107.55 91.00 108.48 89.98
  Q 111.31 86.91 114.33 84.72
  Q 116.00 83.51 117.39 82.28
  Q 118.68 81.15 120.36 80.38
  Q 121.99 79.64 123.36 78.82
  Q 123.81 78.56 124.09 78.12
  Q 124.87 76.96 126.19 76.76
  Q 126.79 76.67 127.29 76.33
  Q 128.29 75.65 129.51 75.26
  Q 130.76 74.88 131.89 74.30
  Q 135.60 72.42 139.64 70.72
  Q 141.07 70.11 142.37 69.12
  Q 143.70 68.09 144.78 66.93
  Q 145.94 65.68 147.37 65.43
  A 1.59 1.57 -70.9 0 0 148.16 65.04
  Q 150.34 63.06 153.23 62.39
  Q 156.74 61.59 159.47 59.76
  Q 161.14 58.63 163.22 57.87
  Q 166.09 56.83 168.49 55.21
  C 169.44 54.57 170.28 54.73 171.03 53.75
  Q 171.23 53.48 171.54 53.36
  Q 172.70 52.89 173.89 52.84
  Q 174.35 52.82 174.62 52.44
  L 177.04 49.07
  Q 177.18 48.87 177.42 48.87
  L 177.70 48.87
  Q 177.96 48.87 178.11 48.64
  Q 178.87 47.44 180.26 47.37
  Q 180.74 47.35 181.12 47.04
  Q 181.93 46.39 183.03 46.60
  A 1.04 1.03 -50.8 0 0 183.67 46.53
  L 187.42 44.87
  Q 187.89 44.66 188.40 44.67
  Q 189.84 44.68 190.62 43.59
  A 0.78 0.77 -63.9 0 1 191.46 43.30
  Q 193.20 43.80 194.23 42.72
  Q 194.53 42.40 194.96 42.42
  Q 197.99 42.52 198.27 40.90
  Q 218.35 36.30 234.00 35.54
  Q 254.43 34.54 283.14 36.18
  Z"
/>
<path fill="#10131a" d="
  M 283.14 36.18
  L 291.51 37.38
  Q 292.44 38.81 295.87 39.05
  Q 300.02 39.33 303.86 40.86
  Q 304.91 41.28 306.46 42.45
  Q 307.78 43.44 309.10 44.05
  Q 314.15 46.38 319.99 48.16
  Q 325.91 49.97 333.28 52.76
  Q 337.51 54.37 341.73 55.85
  Q 341.81 55.88 341.88 55.84
  Q 341.97 55.79 341.93 55.70
  Q 341.89 55.61 341.81 55.56
  Q 340.16 54.51 338.46 53.55
  Q 337.10 52.78 334.91 52.00
  Q 333.35 51.44 331.82 50.76
  Q 330.96 50.37 329.96 50.25
  Q 329.08 50.14 328.48 49.52
  Q 328.08 49.11 327.50 49.08
  Q 325.63 49.01 324.02 48.17
  Q 322.50 47.38 320.86 46.97
  Q 316.67 45.94 312.92 44.02
  Q 312.72 43.91 312.49 43.90
  Q 312.27 43.90 312.05 43.89
  Q 311.74 43.89 311.44 43.76
  Q 309.18 42.78 307.19 41.39
  Q 306.70 41.05 306.13 41.22
  Q 305.69 41.35 305.36 40.96
  Q 304.99 40.52 305.55 40.68
  Q 307.77 41.30 309.54 42.01
  Q 311.33 42.72 313.11 42.64
  Q 313.66 42.61 314.11 42.94
  Q 315.20 43.74 316.15 44.50
  Q 317.38 45.47 318.99 45.41
  Q 320.32 45.36 321.41 45.87
  Q 322.84 46.55 324.09 47.72
  Q 324.46 48.06 324.95 48.15
  Q 327.28 48.56 329.49 49.19
  Q 330.54 49.49 331.27 50.20
  A 1.44 1.42 -25.2 0 0 332.40 50.60
  Q 334.03 50.43 335.42 51.34
  Q 338.63 53.40 342.20 53.96
  Q 342.46 54.00 342.64 54.20
  Q 343.49 55.11 344.64 55.48
  Q 347.81 56.51 350.37 58.30
  Q 354.23 61.00 358.09 61.83
  Q 358.53 61.92 358.80 62.28
  Q 359.78 63.57 361.64 63.58
  Q 362.16 63.58 362.62 63.83
  L 370.80 68.19
  Q 371.06 68.33 371.26 68.54
  Q 371.54 68.84 371.98 68.85
  Q 372.47 68.85 372.89 69.12
  Q 374.12 69.90 375.44 70.75
  Q 376.25 71.27 377.14 71.61
  Q 378.09 71.97 378.83 72.69
  Q 379.46 73.30 379.96 73.45
  Q 380.63 73.66 381.35 73.72
  Q 398.68 86.80 409.44 97.57
  Q 426.84 115.00 442.51 139.21
  Q 442.66 140.17 442.52 140.94
  Q 442.40 141.56 441.83 141.31
  Q 441.65 141.23 441.46 141.16
  Q 440.44 140.79 441.14 141.61
  Q 442.05 142.67 442.93 143.63
  Q 443.76 144.53 444.19 145.59
  Q 445.17 147.99 446.69 150.12
  Q 446.96 150.51 447.06 150.96
  Q 447.19 151.53 447.61 151.89
  Q 448.19 152.40 448.29 153.29
  Q 448.31 153.49 448.01 153.41
  A 0.10 0.10 0.0 0 0 447.91 153.56
  Q 448.46 154.34 448.25 155.50
  Q 448.14 156.11 448.60 156.52
  Q 449.10 156.97 449.16 157.59
  Q 449.22 158.23 449.76 158.58
  Q 450.01 158.74 450.30 158.56
  A 0.51 0.50 55.6 0 1 450.97 158.69
  Q 451.33 159.19 451.48 159.77
  Q 451.64 160.44 452.20 160.03
  Q 452.63 159.71 453.13 159.59
  Q 453.87 159.42 453.61 160.14
  Q 453.41 160.69 452.80 160.83
  A 0.57 0.57 0.0 0 0 452.38 161.51
  L 452.87 163.53
  Q 452.98 164.00 453.45 164.12
  Q 454.39 164.36 455.13 163.74
  Q 455.43 163.49 455.59 163.85
  Q 455.93 164.62 455.18 165.37
  Q 454.79 165.75 455.25 166.04
  Q 455.55 166.23 455.24 166.51
  Q 454.89 166.82 454.88 167.29
  L 454.88 170.21
  A 1.19 1.18 -66.8 0 0 455.20 171.02
  L 455.61 171.45
  A 1.27 1.25 -72.5 0 1 455.94 172.09
  Q 456.55 174.97 458.61 177.03
  Q 458.72 177.13 458.86 177.13
  Q 459.03 177.12 459.20 177.11
  A 0.23 0.23 0.0 0 1 459.41 177.46
  Q 459.25 177.75 459.51 177.96
  Q 460.07 178.41 460.52 177.85
  Q 460.72 177.61 460.99 177.45
  Q 461.13 177.37 461.09 177.21
  Q 461.06 177.04 460.93 177.00
  Q 460.24 176.77 460.96 176.64
  Q 461.32 176.58 461.76 176.55
  Q 461.73 177.18 461.96 177.32
  Q 461.60 178.25 462.08 178.95
  Q 462.59 179.68 461.76 179.38
  Q 461.60 179.32 461.42 179.34
  Q 460.90 179.39 461.14 179.86
  Q 461.42 180.40 462.02 180.80
  A 0.03 0.03 0.0 0 1 461.99 180.86
  Q 461.83 180.83 461.68 180.91
  Q 461.32 181.13 461.57 181.46
  Q 461.92 181.91 462.05 182.59
  Q 462.15 183.07 461.75 183.35
  Q 460.93 183.95 461.67 185.11
  Q 462.65 186.64 462.83 188.62
  Q 462.86 188.95 463.05 189.22
  Q 463.37 189.67 463.89 189.75
  Q 464.39 189.83 464.38 190.34
  Q 464.33 192.79 465.08 194.16
  Q 466.33 196.47 468.76 197.40
  Q 469.57 199.03 469.92 200.75
  Q 470.53 203.70 470.65 204.18
  Q 471.30 206.63 472.33 211.48
  Q 474.45 221.41 474.78 227.93
  Q 474.03 228.26 473.68 227.88
  Q 473.48 227.67 473.19 227.66
  Q 473.01 227.66 472.89 227.78
  Q 472.45 228.19 472.58 228.77
  Q 473.03 230.87 472.76 232.57
  Q 472.49 234.24 472.56 236.01
  Q 472.70 239.79 472.65 243.29
  Q 472.63 244.74 472.87 246.27
  Q 473.08 247.66 473.18 249.03
  C 473.32 251.12 474.34 253.26 473.73 255.47
  Q 473.44 256.52 473.23 257.61
  Q 472.66 260.53 471.90 263.40
  Q 471.07 266.62 470.92 269.24
  Q 470.75 272.27 470.43 275.25
  Q 470.37 275.79 470.07 276.26
  Q 469.59 277.00 469.65 277.81
  Q 469.68 278.33 469.29 278.66
  Q 468.81 279.08 468.83 279.70
  Q 468.85 280.23 468.73 280.77
  Q 468.02 284.01 467.51 287.47
  A 0.67 0.66 -87.3 0 1 466.89 288.04
  Q 466.47 288.08 466.26 288.42
  Q 465.91 288.98 465.85 289.65
  Q 465.69 291.50 465.55 293.48
  Q 465.51 293.96 465.25 294.36
  Q 464.85 294.98 465.31 295.58
  C 466.21 296.71 466.16 298.50 465.00 299.36
  Q 464.63 299.64 464.44 300.07
  C 463.69 301.73 462.74 302.74 460.78 303.06
  Q 457.08 303.66 453.74 305.39
  A 0.90 0.89 -49.6 0 1 453.06 305.45
  L 449.03 304.18
  A 2.73 2.73 0.0 0 0 445.52 306.27
  Q 444.53 311.50 442.40 317.12
  Q 439.58 324.54 437.00 331.55
  Q 435.28 336.22 432.36 341.87
  Q 428.59 349.16 427.20 351.51
  Q 399.58 397.96 352.87 425.56
  Q 337.03 434.91 320.84 440.41
  C 309.50 444.26 298.84 447.48 287.25 449.55
  Q 284.03 450.12 281.25 450.18
  Q 280.33 448.91 279.14 447.82
  Q 277.93 446.72 276.99 445.53
  Q 271.44 438.49 264.86 431.59
  C 235.32 400.59 206.33 369.48 177.21 338.14
  Q 172.50 333.08 168.38 328.29
  C 163.39 322.51 158.52 316.79 153.72 310.71
  Q 150.73 306.91 147.55 303.28
  Q 146.99 302.65 146.77 302.06
  Q 146.02 300.13 147.82 300.68
  Q 159.73 312.78 171.26 325.23
  Q 179.38 334.00 181.84 336.16
  Q 187.28 340.91 194.98 341.55
  Q 207.68 342.60 215.61 333.02
  Q 217.56 332.03 217.06 331.46
  L 253.22 275.69
  Q 253.49 275.26 253.76 275.69
  Q 269.50 300.68 287.21 328.02
  Q 291.00 333.87 294.26 336.68
  Q 299.71 341.38 309.19 341.92
  Q 318.90 342.48 326.12 335.68
  C 333.26 328.96 339.20 321.57 346.19 314.59
  Q 357.12 303.66 367.34 293.52
  Q 371.77 289.12 373.63 283.40
  Q 374.82 279.75 374.83 272.51
  Q 374.86 252.71 374.65 233.00
  Q 374.59 227.44 372.68 222.10
  Q 373.14 221.26 374.19 222.45
  C 375.32 223.72 375.39 225.58 376.57 226.98
  Q 382.07 233.55 387.06 238.93
  C 392.53 244.81 397.83 250.79 403.32 256.62
  Q 422.01 276.49 440.99 296.15
  C 442.54 297.74 443.79 299.55 445.33 301.19
  A 0.89 0.89 0.0 0 0 446.73 301.05
  Q 447.18 300.33 447.37 299.54
  Q 450.82 285.40 451.72 271.55
  Q 452.22 263.99 452.16 252.14
  Q 452.11 241.67 451.07 232.69
  Q 447.57 202.60 433.80 173.20
  Q 428.36 161.59 423.44 153.13
  Q 429.46 148.50 436.52 144.41
  Q 437.22 144.00 437.59 143.12
  Q 437.76 142.70 438.10 143.00
  L 440.28 144.96
  Q 440.69 145.33 440.93 145.83
  Q 442.55 149.22 444.00 152.47
  Q 444.91 154.53 445.27 156.10
  Q 445.36 156.53 445.57 156.92
  L 446.47 158.63
  A 0.02 0.02 0.0 0 0 446.50 158.62
  Q 444.49 151.69 441.56 145.19
  Q 441.28 144.56 440.63 144.31
  Q 438.22 143.39 437.94 140.86
  Q 437.89 140.45 438.06 140.07
  Q 438.97 137.96 437.12 136.66
  Q 436.24 136.04 435.33 135.43
  Q 434.85 135.11 434.73 134.55
  Q 434.24 132.20 433.10 130.14
  C 432.45 128.94 431.18 128.47 430.94 126.99
  A 0.98 0.95 21.7 0 0 430.74 126.54
  L 416.11 108.75
  Q 415.82 108.39 415.36 108.39
  Q 414.83 108.38 414.90 107.90
  Q 414.97 107.41 414.60 107.08
  L 412.38 105.18
  Q 411.95 104.80 411.78 104.26
  Q 411.39 102.96 410.19 102.50
  A 2.51 2.48 80.8 0 1 409.15 101.74
  Q 406.91 99.03 404.43 96.16
  A 0.45 0.38 76.3 0 0 404.32 96.08
  Q 401.75 94.58 399.98 93.07
  Q 396.37 89.98 396.30 89.92
  Q 393.16 87.62 390.00 85.38
  Q 384.24 81.29 377.96 78.10
  Q 376.08 77.14 374.70 76.14
  Q 373.67 75.39 372.66 74.63
  Q 371.70 73.90 370.45 73.39
  Q 366.03 71.58 362.37 68.48
  A 1.79 1.70 68.7 0 0 361.56 68.10
  Q 359.66 67.73 358.13 66.54
  Q 357.73 66.23 357.23 66.15
  C 355.32 65.84 353.18 65.42 351.56 64.36
  Q 345.63 60.48 339.00 57.80
  C 338.44 57.57 338.06 57.62 337.48 57.65
  Q 336.98 57.67 336.59 57.37
  Q 335.74 56.71 334.67 56.39
  Q 333.52 56.04 332.54 55.27
  Q 331.95 54.81 331.38 54.34
  Q 330.86 53.90 330.15 53.69
  Q 325.45 52.25 321.12 50.76
  Q 320.01 50.37 318.98 49.74
  C 318.06 49.18 316.73 49.18 315.65 48.86
  Q 314.02 48.36 312.50 48.24
  Q 311.96 48.20 311.63 47.77
  Q 310.48 46.24 308.44 46.06
  Q 307.97 46.02 307.56 45.78
  Q 305.04 44.28 302.46 43.12
  Q 300.74 42.35 298.87 42.38
  Q 296.89 42.42 294.85 41.39
  Q 292.21 40.08 288.97 39.73
  A 1.25 1.23 71.0 0 1 288.22 39.36
  L 286.68 37.75
  Q 286.31 37.37 285.78 37.32
  Q 284.22 37.17 283.14 36.18
  Z
  M 436.98 133.97
  Q 436.79 134.27 437.09 134.58
  Q 437.45 134.95 437.60 134.46
  Q 437.86 133.63 437.10 132.88
  A 0.40 0.40 0.0 0 0 436.42 133.10
  Q 436.35 133.54 436.81 133.60
  Q 437.19 133.65 436.98 133.97
  Z
  M 465.54 195.33
  Q 465.50 195.19 465.31 195.18
  Q 464.82 195.18 464.93 195.65
  Q 465.15 196.59 465.91 197.31
  Q 466.69 198.05 466.46 197.00
  Q 466.28 196.19 465.72 195.63
  Q 465.59 195.50 465.54 195.33
  Z"
/>
<path fill="#030303" fill-opacity="0.690" d="
  M 291.51 37.38
  Q 304.95 39.36 311.00 40.83
  Q 320.36 43.09 335.18 48.22
  Q 337.02 48.85 338.70 49.76
  Q 339.85 50.39 341.08 50.67
  Q 342.24 50.94 343.39 51.53
  Q 348.92 54.39 356.49 58.03
  Q 369.31 64.20 381.35 73.72
  Q 380.63 73.66 379.96 73.45
  Q 379.46 73.30 378.83 72.69
  Q 378.09 71.97 377.14 71.61
  Q 376.25 71.27 375.44 70.75
  Q 374.12 69.90 372.89 69.12
  Q 372.47 68.85 371.98 68.85
  Q 371.54 68.84 371.26 68.54
  Q 371.06 68.33 370.80 68.19
  L 362.62 63.83
  Q 362.16 63.58 361.64 63.58
  Q 359.78 63.57 358.80 62.28
  Q 358.53 61.92 358.09 61.83
  Q 354.23 61.00 350.37 58.30
  Q 347.81 56.51 344.64 55.48
  Q 343.49 55.11 342.64 54.20
  Q 342.46 54.00 342.20 53.96
  Q 338.63 53.40 335.42 51.34
  Q 334.03 50.43 332.40 50.60
  A 1.44 1.42 -25.2 0 1 331.27 50.20
  Q 330.54 49.49 329.49 49.19
  Q 327.28 48.56 324.95 48.15
  Q 324.46 48.06 324.09 47.72
  Q 322.84 46.55 321.41 45.87
  Q 320.32 45.36 318.99 45.41
  Q 317.38 45.47 316.15 44.50
  Q 315.20 43.74 314.11 42.94
  Q 313.66 42.61 313.11 42.64
  Q 311.33 42.72 309.54 42.01
  Q 307.77 41.30 305.55 40.68
  Q 304.99 40.52 305.36 40.96
  Q 305.69 41.35 306.13 41.22
  Q 306.70 41.05 307.19 41.39
  Q 309.18 42.78 311.44 43.76
  Q 311.74 43.89 312.05 43.89
  Q 312.27 43.90 312.49 43.90
  Q 312.72 43.91 312.92 44.02
  Q 316.67 45.94 320.86 46.97
  Q 322.50 47.38 324.02 48.17
  Q 325.63 49.01 327.50 49.08
  Q 328.08 49.11 328.48 49.52
  Q 329.08 50.14 329.96 50.25
  Q 330.96 50.37 331.82 50.76
  Q 333.35 51.44 334.91 52.00
  Q 337.10 52.78 338.46 53.55
  Q 340.16 54.51 341.81 55.56
  Q 341.89 55.61 341.93 55.70
  Q 341.97 55.79 341.88 55.84
  Q 341.81 55.88 341.73 55.85
  Q 337.51 54.37 333.28 52.76
  Q 325.91 49.97 319.99 48.16
  Q 314.15 46.38 309.10 44.05
  Q 307.78 43.44 306.46 42.45
  Q 304.91 41.28 303.86 40.86
  Q 300.02 39.33 295.87 39.05
  Q 292.44 38.81 291.51 37.38
  Z"
/>
<path fill="#10131a" d="
  M 198.27 40.90
  Q 197.99 42.52 194.96 42.42
  Q 194.53 42.40 194.23 42.72
  Q 193.20 43.80 191.46 43.30
  A 0.78 0.77 -63.9 0 0 190.62 43.59
  Q 189.84 44.68 188.40 44.67
  Q 187.89 44.66 187.42 44.87
  L 183.67 46.53
  A 1.04 1.03 -50.8 0 1 183.03 46.60
  Q 181.93 46.39 181.12 47.04
  Q 180.74 47.35 180.26 47.37
  Q 178.87 47.44 178.11 48.64
  Q 177.96 48.87 177.70 48.87
  L 177.42 48.87
  Q 177.18 48.87 177.04 49.07
  L 174.62 52.44
  Q 174.35 52.82 173.89 52.84
  Q 172.70 52.89 171.54 53.36
  Q 171.23 53.48 171.03 53.75
  C 170.28 54.73 169.44 54.57 168.49 55.21
  Q 166.09 56.83 163.22 57.87
  Q 161.14 58.63 159.47 59.76
  Q 156.74 61.59 153.23 62.39
  Q 150.34 63.06 148.16 65.04
  A 1.59 1.57 -70.9 0 1 147.37 65.43
  Q 145.94 65.68 144.78 66.93
  Q 143.70 68.09 142.37 69.12
  Q 141.07 70.11 139.64 70.72
  Q 135.60 72.42 131.89 74.30
  Q 130.76 74.88 129.51 75.26
  Q 128.29 75.65 127.29 76.33
  Q 126.79 76.67 126.19 76.76
  Q 124.87 76.96 124.09 78.12
  Q 123.81 78.56 123.36 78.82
  Q 121.99 79.64 120.36 80.38
  Q 118.68 81.15 117.39 82.28
  Q 116.00 83.51 114.33 84.72
  Q 111.31 86.91 108.48 89.98
  Q 107.55 91.00 106.32 91.75
  Q 104.99 92.57 104.21 93.91
  Q 104.02 94.24 103.66 94.40
  Q 102.59 94.89 102.01 95.91
  Q 101.83 96.23 101.48 96.35
  C 100.23 96.80 99.90 98.06 98.47 98.47
  Q 100.83 95.64 103.54 93.09
  Q 111.23 85.85 119.51 79.29
  Q 154.52 51.52 198.27 40.90
  Z"
/>
<path fill="#29282e" d="
  M 423.44 153.13
  Q 428.36 161.59 433.80 173.20
  Q 447.57 202.60 451.07 232.69
  Q 452.11 241.67 452.16 252.14
  Q 452.22 263.99 451.72 271.55
  Q 450.82 285.40 447.37 299.54
  Q 447.18 300.33 446.73 301.05
  A 0.89 0.89 0.0 0 1 445.33 301.19
  C 443.79 299.55 442.54 297.74 440.99 296.15
  Q 422.01 276.49 403.32 256.62
  C 397.83 250.79 392.53 244.81 387.06 238.93
  Q 382.07 233.55 376.57 226.98
  C 375.39 225.58 375.32 223.72 374.19 222.45
  Q 373.14 221.26 372.68 222.10
  C 371.34 220.22 370.49 218.28 368.78 216.61
  Q 362.13 210.10 353.20 200.56
  C 346.90 193.82 340.21 187.39 333.90 180.27
  Q 330.35 176.25 326.20 172.15
  Q 321.24 167.24 315.42 166.35
  C 307.14 165.08 298.56 166.65 292.79 172.64
  Q 289.03 176.54 284.14 184.58
  Q 270.84 206.43 257.50 226.49
  Q 255.65 229.27 253.35 231.81
  A 0.63 0.63 0.0 0 1 252.35 231.72
  L 219.13 179.52
  A 1.28 1.28 0.0 0 0 217.50 179.06
  C 215.76 179.91 214.18 180.95 212.90 182.43
  Q 209.15 186.74 204.57 190.95
  A 2.16 2.15 -37.1 0 0 204.19 193.65
  Q 222.97 224.54 242.47 253.60
  Q 242.75 254.01 242.46 254.42
  Q 238.68 259.54 234.86 265.55
  Q 218.65 291.05 202.31 316.22
  A 1.98 1.98 0.0 0 0 202.66 318.78
  L 217.06 331.46
  Q 217.56 332.03 215.61 333.02
  L 202.38 320.81
  Q 201.16 319.68 199.66 320.39
  L 196.84 321.72
  Q 196.34 321.96 195.85 321.72
  Q 193.34 320.52 191.50 318.56
  Q 174.64 300.68 157.32 282.54
  C 153.50 278.54 153.54 275.35 153.51 269.25
  Q 153.41 252.56 153.58 234.57
  C 153.62 230.64 154.81 228.14 157.35 225.48
  Q 175.17 206.81 191.91 188.95
  C 196.15 184.43 198.32 185.70 202.15 189.52
  Q 202.76 190.12 203.41 189.56
  Q 207.35 186.16 210.80 182.04
  C 212.28 180.27 213.78 179.16 215.58 177.82
  A 1.57 1.56 54.0 0 0 215.92 175.67
  Q 211.43 169.24 204.93 167.30
  Q 190.52 163.00 180.09 173.97
  Q 158.85 196.29 140.13 215.57
  Q 134.93 220.93 133.44 228.00
  Q 133.01 230.08 132.98 240.99
  Q 132.94 259.11 133.15 276.75
  C 133.27 287.42 139.99 293.14 147.82 300.68
  Q 146.02 300.13 146.77 302.06
  Q 146.99 302.65 147.55 303.28
  Q 150.73 306.91 153.72 310.71
  C 158.52 316.79 163.39 322.51 168.38 328.29
  Q 172.50 333.08 177.21 338.14
  C 206.33 369.48 235.32 400.59 264.86 431.59
  Q 271.44 438.49 276.99 445.53
  Q 277.93 446.72 279.14 447.82
  Q 280.33 448.91 281.25 450.18
  Q 237.62 456.35 197.63 444.39
  Q 162.60 433.91 133.39 410.63
  Q 124.58 403.61 118.93 398.39
  Q 103.34 382.78 91.61 365.39
  Q 75.41 341.37 66.22 311.59
  Q 64.17 304.93 62.88 297.75
  C 61.74 291.36 60.01 285.07 59.47 278.74
  Q 58.10 262.61 58.56 243.57
  Q 58.82 232.92 60.47 223.55
  Q 64.89 198.61 71.91 180.94
  Q 76.74 168.80 84.01 155.28
  Q 90.71 142.83 101.64 128.79
  Q 117.51 108.41 136.88 94.54
  Q 147.52 86.91 164.11 77.77
  Q 173.46 72.62 190.37 67.16
  Q 199.53 64.20 210.43 61.55
  Q 220.86 59.02 232.21 57.97
  C 241.09 57.15 249.94 57.52 258.85 57.42
  C 265.16 57.36 271.32 57.14 277.61 58.00
  Q 279.37 58.24 289.41 59.91
  C 300.27 61.71 310.72 64.67 321.26 68.26
  C 341.98 75.31 359.30 86.67 376.80 99.68
  Q 384.84 105.66 398.99 120.92
  Q 401.91 124.08 408.64 132.37
  Q 412.39 136.99 416.17 142.66
  Q 419.96 148.35 423.44 153.13
  Z
  M 222.59 246.99
  A 0.43 0.43 0.0 0 1 222.16 246.51
  L 224.49 228.48
  A 0.43 0.43 0.0 0 0 224.06 227.99
  L 218.93 228.00
  A 0.43 0.43 0.0 0 0 218.51 228.37
  L 216.00 246.63
  A 0.43 0.43 0.0 0 1 215.58 247.00
  L 206.15 247.00
  A 0.43 0.43 0.0 0 1 205.72 246.51
  L 208.09 228.48
  A 0.43 0.43 0.0 0 0 207.66 227.99
  L 202.60 228.00
  A 0.43 0.43 0.0 0 0 202.17 228.37
  L 199.74 246.62
  A 0.43 0.43 0.0 0 1 199.31 246.99
  L 190.67 247.01
  A 0.43 0.43 0.0 0 0 190.24 247.44
  L 190.22 252.57
  A 0.43 0.43 0.0 0 0 190.65 253.00
  L 198.23 253.00
  A 0.43 0.43 0.0 0 1 198.66 253.48
  L 196.92 267.10
  A 0.43 0.43 0.0 0 1 196.49 267.48
  L 188.10 267.47
  A 0.43 0.43 0.0 0 0 187.67 267.90
  L 187.67 273.11
  A 0.43 0.43 0.0 0 0 188.10 273.54
  L 195.42 273.53
  A 0.43 0.43 0.0 0 1 195.85 274.02
  L 193.38 292.50
  A 0.43 0.43 0.0 0 0 193.81 292.99
  L 199.08 293.00
  A 0.43 0.43 0.0 0 0 199.51 292.63
  L 201.97 273.90
  A 0.43 0.43 0.0 0 1 202.40 273.53
  L 211.85 273.54
  A 0.43 0.43 0.0 0 1 212.28 274.03
  L 209.82 292.51
  A 0.43 0.43 0.0 0 0 210.25 293.00
  L 215.48 292.99
  A 0.43 0.43 0.0 0 0 215.91 292.62
  L 218.39 273.89
  A 0.43 0.43 0.0 0 1 218.82 273.51
  L 227.57 273.59
  A 0.43 0.43 0.0 0 0 228.00 273.16
  L 228.00 267.87
  A 0.43 0.43 0.0 0 0 227.57 267.44
  L 219.86 267.49
  A 0.43 0.43 0.0 0 1 219.43 267.01
  L 221.09 253.38
  A 0.43 0.43 0.0 0 1 221.52 253.00
  L 229.89 252.99
  A 0.43 0.43 0.0 0 0 230.32 252.56
  L 230.35 247.44
  A 0.43 0.43 0.0 0 0 229.92 247.01
  L 222.59 246.99
  Z"
/>
<path fill="#10131a" d="
  M 38.25 216.45
  Q 39.84 205.45 42.79 195.22
  Q 43.88 194.33 43.86 192.65
  Q 43.85 192.08 44.40 191.89
  Q 44.67 191.80 44.95 191.86
  Q 45.36 191.95 45.54 191.56
  L 46.18 190.16
  Q 46.37 189.74 46.83 189.63
  Q 47.35 189.51 47.83 189.17
  Q 48.28 188.85 48.38 188.30
  L 49.11 184.28
  Q 49.18 183.86 49.56 183.64
  Q 50.89 182.87 50.60 181.04
  Q 50.52 180.49 50.89 180.07
  Q 51.12 179.83 51.41 179.67
  Q 51.84 179.44 51.89 178.96
  C 52.00 177.82 52.05 176.51 52.45 175.46
  Q 53.65 172.33 54.51 169.30
  Q 54.64 168.84 54.98 168.51
  Q 56.40 167.07 56.36 164.74
  Q 56.35 164.23 56.74 163.91
  Q 58.07 162.81 59.18 161.56
  Q 60.41 160.17 60.79 158.53
  Q 61.18 156.82 62.72 155.24
  Q 64.75 153.17 65.67 150.50
  Q 65.84 150.02 66.19 149.67
  C 66.93 148.95 67.51 148.31 67.62 147.21
  Q 67.80 145.52 69.11 144.19
  Q 69.52 143.77 69.56 143.18
  Q 69.62 142.41 70.17 141.83
  Q 70.48 141.50 70.48 141.06
  Q 70.53 135.74 74.39 132.61
  A 3.44 3.44 0.0 0 0 75.42 128.65
  Q 75.36 128.48 75.53 128.42
  Q 76.07 128.26 75.59 127.97
  Q 75.33 127.81 75.38 127.49
  Q 75.58 126.15 76.90 125.59
  Q 77.53 125.32 77.31 125.97
  Q 77.17 126.38 76.89 126.72
  Q 76.50 127.20 76.58 127.81
  Q 76.96 131.00 75.52 133.28
  Q 74.65 134.64 73.50 135.88
  Q 73.05 136.36 72.96 137.01
  Q 72.77 138.50 71.68 140.11
  Q 71.29 140.69 70.90 141.27
  Q 69.53 143.29 68.60 145.98
  Q 68.14 147.34 67.43 148.49
  Q 66.96 149.26 66.46 149.99
  Q 65.98 150.69 65.73 151.61
  Q 65.06 154.09 64.30 154.80
  Q 62.17 156.78 61.45 159.18
  Q 60.85 161.17 59.77 163.09
  Q 58.32 165.66 57.26 168.34
  Q 56.45 170.40 55.32 172.27
  Q 55.04 172.73 55.09 173.26
  Q 55.26 175.16 53.76 176.19
  Q 53.37 176.46 53.30 176.93
  Q 52.07 184.92 48.70 192.58
  Q 47.89 194.41 47.53 196.38
  Q 46.69 201.01 44.91 205.62
  Q 44.29 207.25 42.80 208.39
  Q 42.42 208.69 42.38 209.17
  Q 42.37 209.31 42.39 209.44
  Q 42.41 209.61 42.29 209.73
  Q 39.89 212.18 38.25 216.45
  Z"
/>
<path fill="#030303" fill-opacity="0.690" d="
  M 436.81 133.60
  Q 436.35 133.54 436.42 133.10
  A 0.40 0.40 0.0 0 1 437.10 132.88
  Q 437.86 133.63 437.60 134.46
  Q 437.45 134.95 437.09 134.58
  Q 436.79 134.27 436.98 133.97
  Q 437.19 133.65 436.81 133.60
  Z"
/>
<path fill="#030303" fill-opacity="0.690" d="
  M 442.51 139.21
  Q 444.08 142.03 445.94 144.57
  Q 446.63 145.51 447.06 146.57
  Q 447.42 147.46 448.00 148.27
  Q 451.49 153.12 453.98 159.15
  Q 454.07 159.37 454.30 159.37
  L 454.58 159.37
  Q 454.76 159.37 454.82 159.54
  Q 456.00 162.95 457.64 166.14
  Q 457.72 166.28 457.85 166.37
  Q 457.90 166.41 457.92 166.35
  Q 458.03 166.05 458.15 166.35
  Q 458.93 168.27 459.50 170.31
  Q 459.63 170.79 459.99 171.13
  Q 460.36 171.48 460.46 172.01
  Q 460.90 174.31 461.76 176.55
  Q 461.32 176.58 460.96 176.64
  Q 460.24 176.77 460.93 177.00
  Q 461.06 177.04 461.09 177.21
  Q 461.13 177.37 460.99 177.45
  Q 460.72 177.61 460.52 177.85
  Q 460.07 178.41 459.51 177.96
  Q 459.25 177.75 459.41 177.46
  A 0.23 0.23 0.0 0 0 459.20 177.11
  Q 459.03 177.12 458.86 177.13
  Q 458.72 177.13 458.61 177.03
  Q 456.55 174.97 455.94 172.09
  A 1.27 1.25 -72.5 0 0 455.61 171.45
  L 455.20 171.02
  A 1.19 1.18 -66.8 0 1 454.88 170.21
  L 454.88 167.29
  Q 454.89 166.82 455.24 166.51
  Q 455.55 166.23 455.25 166.04
  Q 454.79 165.75 455.18 165.37
  Q 455.93 164.62 455.59 163.85
  Q 455.43 163.49 455.13 163.74
  Q 454.39 164.36 453.45 164.12
  Q 452.98 164.00 452.87 163.53
  L 452.38 161.51
  A 0.57 0.57 0.0 0 1 452.80 160.83
  Q 453.41 160.69 453.61 160.14
  Q 453.87 159.42 453.13 159.59
  Q 452.63 159.71 452.20 160.03
  Q 451.64 160.44 451.48 159.77
  Q 451.33 159.19 450.97 158.69
  A 0.51 0.50 55.6 0 0 450.30 158.56
  Q 450.01 158.74 449.76 158.58
  Q 449.22 158.23 449.16 157.59
  Q 449.10 156.97 448.60 156.52
  Q 448.14 156.11 448.25 155.50
  Q 448.46 154.34 447.91 153.56
  A 0.10 0.10 0.0 0 1 448.01 153.41
  Q 448.31 153.49 448.29 153.29
  Q 448.19 152.40 447.61 151.89
  Q 447.19 151.53 447.06 150.96
  Q 446.96 150.51 446.69 150.12
  Q 445.17 147.99 444.19 145.59
  Q 443.76 144.53 442.93 143.63
  Q 442.05 142.67 441.14 141.61
  Q 440.44 140.79 441.46 141.16
  Q 441.65 141.23 441.83 141.31
  Q 442.40 141.56 442.52 140.94
  Q 442.66 140.17 442.51 139.21
  Z"
/>
<path fill="#10131a" d="
  M 60.03 151.20
  Q 60.23 151.72 60.08 152.09
  Q 59.88 152.57 60.29 152.31
  Q 60.33 152.28 60.38 152.26
  Q 60.56 152.21 60.57 152.40
  Q 60.65 154.31 59.82 155.94
  Q 58.23 159.06 55.41 161.70
  A 1.23 1.23 0.0 0 0 55.03 162.46
  Q 54.68 165.44 52.41 166.58
  Q 55.51 159.02 59.26 151.99
  Q 59.58 151.39 60.03 151.20
  Z"
/>
<path fill="#289cc7" d="
  M 215.61 333.02
  Q 207.68 342.60 194.98 341.55
  Q 187.28 340.91 181.84 336.16
  Q 179.38 334.00 171.26 325.23
  Q 159.73 312.78 147.82 300.68
  C 139.99 293.14 133.27 287.42 133.15 276.75
  Q 132.94 259.11 132.98 240.99
  Q 133.01 230.08 133.44 228.00
  Q 134.93 220.93 140.13 215.57
  Q 158.85 196.29 180.09 173.97
  Q 190.52 163.00 204.93 167.30
  Q 211.43 169.24 215.92 175.67
  A 1.57 1.56 54.0 0 1 215.58 177.82
  C 213.78 179.16 212.28 180.27 210.80 182.04
  Q 207.35 186.16 203.41 189.56
  Q 202.76 190.12 202.15 189.52
  C 198.32 185.70 196.15 184.43 191.91 188.95
  Q 175.17 206.81 157.35 225.48
  C 154.81 228.14 153.62 230.64 153.58 234.57
  Q 153.41 252.56 153.51 269.25
  C 153.54 275.35 153.50 278.54 157.32 282.54
  Q 174.64 300.68 191.50 318.56
  Q 193.34 320.52 195.85 321.72
  Q 196.34 321.96 196.84 321.72
  L 199.66 320.39
  Q 201.16 319.68 202.38 320.81
  L 215.61 333.02
  Z"
/>
<path fill="#289cc7" d="
  M 372.68 222.10
  Q 374.59 227.44 374.65 233.00
  Q 374.86 252.71 374.83 272.51
  Q 374.82 279.75 373.63 283.40
  Q 371.77 289.12 367.34 293.52
  Q 357.12 303.66 346.19 314.59
  C 339.20 321.57 333.26 328.96 326.12 335.68
  Q 318.90 342.48 309.19 341.92
  Q 299.71 341.38 294.26 336.68
  Q 291.00 333.87 287.21 328.02
  Q 269.50 300.68 253.76 275.69
  Q 253.49 275.26 253.22 275.69
  L 217.06 331.46
  L 202.66 318.78
  A 1.98 1.98 0.0 0 1 202.31 316.22
  Q 218.65 291.05 234.86 265.55
  Q 238.68 259.54 242.46 254.42
  Q 242.75 254.01 242.47 253.60
  Q 222.97 224.54 204.19 193.65
  A 2.16 2.15 -37.1 0 1 204.57 190.95
  Q 209.15 186.74 212.90 182.43
  C 214.18 180.95 215.76 179.91 217.50 179.06
  A 1.28 1.28 0.0 0 1 219.13 179.52
  L 252.35 231.72
  A 0.63 0.63 0.0 0 0 253.35 231.81
  Q 255.65 229.27 257.50 226.49
  Q 270.84 206.43 284.14 184.58
  Q 289.03 176.54 292.79 172.64
  C 298.56 166.65 307.14 165.08 315.42 166.35
  Q 321.24 167.24 326.20 172.15
  Q 330.35 176.25 333.90 180.27
  C 340.21 187.39 346.90 193.82 353.20 200.56
  Q 362.13 210.10 368.78 216.61
  C 370.49 218.28 371.34 220.22 372.68 222.10
  Z
  M 320.17 194.87
  C 316.97 191.45 314.45 186.54 309.19 186.14
  Q 308.72 186.10 308.35 186.40
  Q 305.65 188.63 304.02 191.29
  Q 285.41 221.69 264.47 253.62
  Q 264.18 254.06 264.46 254.51
  Q 286.59 290.17 305.02 318.05
  C 308.31 323.02 310.66 321.86 314.20 318.20
  Q 332.85 298.97 351.65 279.88
  C 353.45 278.05 353.93 276.81 353.98 274.39
  Q 354.45 250.81 353.46 233.16
  C 353.34 231.05 352.80 228.73 351.26 227.18
  Q 336.42 212.29 320.17 194.87
  Z"
/>
<path fill="#030303" fill-opacity="0.690" d="
  M 461.96 177.32
  L 463.33 178.77
  Q 463.74 179.21 463.61 179.80
  Q 463.47 180.42 464.01 180.73
  Q 464.34 180.92 464.37 181.31
  Q 464.64 184.37 466.36 187.23
  Q 467.10 188.47 466.91 189.92
  Q 466.84 190.46 467.12 190.92
  Q 467.83 192.13 468.08 193.53
  A 2.45 2.34 25.2 0 0 468.42 194.41
  Q 469.21 195.66 468.76 197.40
  Q 466.33 196.47 465.08 194.16
  Q 464.33 192.79 464.38 190.34
  Q 464.39 189.83 463.89 189.75
  Q 463.37 189.67 463.05 189.22
  Q 462.86 188.95 462.83 188.62
  Q 462.65 186.64 461.67 185.11
  Q 460.93 183.95 461.75 183.35
  Q 462.15 183.07 462.05 182.59
  Q 461.92 181.91 461.57 181.46
  Q 461.32 181.13 461.68 180.91
  Q 461.83 180.83 461.99 180.86
  A 0.03 0.03 0.0 0 0 462.02 180.80
  Q 461.42 180.40 461.14 179.86
  Q 460.90 179.39 461.42 179.34
  Q 461.60 179.32 461.76 179.38
  Q 462.59 179.68 462.08 178.95
  Q 461.60 178.25 461.96 177.32
  Z"
/>
<path fill="#10131a" d="
  M 309.19 186.14
  C 314.45 186.54 316.97 191.45 320.17 194.87
  Q 336.42 212.29 351.26 227.18
  C 352.80 228.73 353.34 231.05 353.46 233.16
  Q 354.45 250.81 353.98 274.39
  C 353.93 276.81 353.45 278.05 351.65 279.88
  Q 332.85 298.97 314.20 318.20
  C 310.66 321.86 308.31 323.02 305.02 318.05
  Q 286.59 290.17 264.46 254.51
  Q 264.18 254.06 264.47 253.62
  Q 285.41 221.69 304.02 191.29
  Q 305.65 188.63 308.35 186.40
  Q 308.72 186.10 309.19 186.14
  Z"
/>
<path fill="#030303" fill-opacity="0.690" d="
  M 465.72 195.63
  Q 466.28 196.19 466.46 197.00
  Q 466.69 198.05 465.91 197.31
  Q 465.15 196.59 464.93 195.65
  Q 464.82 195.18 465.31 195.18
  Q 465.50 195.19 465.54 195.33
  Q 465.59 195.50 465.72 195.63
  Z"
/>
<path fill="#000001" d="
  M 474.78 227.93
  Q 475.51 237.13 475.56 241.75
  Q 475.82 266.57 474.93 278.24
  Q 473.85 292.32 468.97 312.78
  Q 468.11 312.68 467.53 313.72
  Q 467.23 314.27 466.99 313.70
  Q 466.97 313.64 466.92 313.63
  Q 466.32 313.52 466.06 314.06
  Q 465.22 315.80 464.66 317.68
  Q 464.49 318.23 464.09 318.64
  L 463.26 319.48
  A 0.49 0.49 0.0 0 0 463.12 319.77
  C 462.86 321.76 462.84 323.74 462.01 325.61
  Q 460.02 330.10 457.92 334.52
  Q 456.29 337.93 454.57 341.89
  L 452.55 344.12
  Q 451.93 344.80 452.15 343.91
  Q 452.65 341.87 453.82 340.23
  Q 453.90 340.11 453.88 339.97
  Q 453.84 339.78 453.86 339.61
  A 1.46 1.11 -28.1 0 1 454.19 338.89
  Q 456.10 336.69 456.64 333.96
  Q 456.74 333.47 457.10 333.12
  Q 457.42 332.82 457.43 332.39
  Q 457.47 331.11 458.50 330.40
  Q 458.91 330.12 459.02 329.65
  L 459.74 326.77
  Q 461.16 323.49 461.17 320.14
  Q 461.13 320.12 461.21 320.14
  Q 461.23 320.15 461.23 320.18
  Q 460.46 323.44 459.74 326.77
  Q 458.31 330.46 456.24 333.95
  C 455.42 335.34 455.62 337.38 454.01 338.57
  Q 453.59 338.89 453.43 339.39
  Q 453.02 340.67 452.16 341.63
  A 2.05 2.01 -17.8 0 0 451.70 342.50
  Q 451.06 345.26 449.83 347.70
  Q 449.39 348.57 448.72 349.12
  Q 447.90 349.79 447.80 351.08
  A 1.55 1.54 -17.2 0 1 447.24 352.13
  Q 446.03 353.11 445.48 354.58
  Q 444.23 357.89 442.62 360.51
  Q 440.05 364.72 436.62 368.60
  Q 435.91 369.40 434.23 371.49
  Q 433.05 372.95 431.69 374.25
  Q 430.04 375.82 429.29 377.41
  C 428.24 379.64 425.97 383.06 423.64 384.24
  Q 422.72 384.71 422.45 385.75
  Q 422.32 386.23 421.89 386.47
  Q 420.65 387.17 420.09 388.45
  C 419.34 390.18 417.78 391.60 416.43 392.88
  Q 416.07 393.22 416.07 393.72
  Q 416.06 394.01 415.80 394.13
  Q 414.99 394.48 414.64 395.31
  A 2.70 2.68 -10.3 0 1 414.06 396.14
  Q 406.77 403.26 399.98 410.51
  Q 399.55 410.97 399.12 411.38
  Q 394.89 415.48 389.92 419.66
  Q 389.68 419.87 389.37 419.99
  Q 388.73 420.24 388.62 420.90
  A 1.03 1.00 74.3 0 1 388.31 421.47
  C 386.75 422.83 384.93 423.79 383.47 425.27
  Q 381.47 427.28 378.83 428.92
  C 377.32 429.87 376.25 431.09 374.83 432.08
  Q 373.31 433.13 371.91 434.46
  Q 370.18 436.11 368.13 437.38
  Q 364.25 439.78 360.36 441.92
  Q 359.10 442.62 357.80 443.10
  Q 356.49 443.59 355.24 444.39
  Q 352.85 445.91 350.23 446.91
  Q 349.36 447.25 348.74 447.97
  Q 347.91 448.95 346.68 448.93
  A 0.98 0.98 0.0 0 0 346.19 449.04
  L 339.61 452.35
  Q 339.33 452.50 339.12 452.74
  Q 339.03 452.86 338.94 452.96
  Q 338.59 453.35 338.07 453.39
  Q 336.91 453.48 335.84 453.87
  Q 335.59 453.96 334.34 454.87
  Q 333.50 455.48 332.50 455.39
  Q 331.98 455.34 331.55 455.64
  Q 329.49 457.08 327.09 457.92
  Q 326.68 458.06 326.34 458.38
  A 1.53 1.52 12.8 0 1 325.81 458.71
  Q 323.12 459.68 320.87 461.18
  A 1.62 1.57 -61.6 0 1 320.02 461.45
  Q 319.08 461.46 318.39 462.04
  C 316.83 463.34 314.69 463.85 312.68 463.86
  A 1.34 1.34 0.0 0 0 311.90 464.11
  Q 310.76 464.91 309.52 465.30
  Q 307.33 465.99 305.78 468.08
  Q 305.62 468.29 305.62 468.56
  L 305.62 469.02
  Q 305.62 469.61 305.04 469.62
  C 304.24 469.64 303.70 469.79 302.67 469.88
  Q 301.60 469.97 301.04 471.01
  Q 291.41 473.12 285.25 473.76
  Q 249.98 477.46 218.50 473.59
  Q 193.49 470.51 167.49 459.69
  Q 167.34 458.68 166.29 458.09
  Q 165.85 457.84 165.36 457.90
  Q 164.62 457.99 164.26 457.61
  Q 161.76 454.95 158.89 450.51
  Q 158.62 450.09 158.16 449.89
  Q 157.26 449.50 156.48 448.83
  Q 155.55 448.03 154.38 447.40
  Q 148.79 444.39 142.89 441.38
  Q 142.38 441.12 142.10 440.62
  Q 141.10 438.79 138.56 438.42
  A 1.57 1.57 0.0 0 1 137.62 437.92
  Q 137.07 437.31 136.23 437.20
  Q 135.63 437.12 135.12 436.78
  L 126.72 431.21
  Q 126.18 430.85 125.52 430.85
  Q 124.96 430.85 124.63 430.39
  Q 124.28 429.89 123.69 429.78
  Q 121.77 429.43 120.63 427.66
  Q 120.34 427.21 119.82 427.09
  Q 118.98 426.89 118.41 426.17
  Q 117.76 425.35 116.94 424.72
  Q 113.84 422.35 112.91 421.48
  Q 112.09 420.71 111.92 419.33
  Q 111.85 418.86 111.53 418.51
  L 109.66 416.45
  Q 109.39 416.16 109.00 416.12
  Q 107.45 415.99 106.32 414.38
  Q 104.75 412.15 102.62 410.70
  Q 101.79 410.14 101.21 409.39
  Q 100.58 408.59 99.61 408.35
  Q 99.26 408.27 99.06 407.97
  Q 98.59 407.24 97.81 406.97
  Q 97.43 406.84 97.19 406.52
  Q 95.37 404.08 94.63 401.19
  Q 94.60 401.06 94.71 401.13
  Q 94.75 401.15 94.78 401.22
  Q 95.42 403.04 96.81 404.24
  L 97.79 404.71
  Q 97.61 405.27 97.87 405.44
  Q 99.95 406.80 101.83 408.40
  Q 102.37 408.85 103.35 409.26
  Q 104.24 409.62 104.94 410.26
  Q 105.30 410.59 105.79 410.66
  Q 107.52 410.89 108.57 410.01
  Q 110.02 409.53 110.72 408.50
  Q 114.44 403.00 118.93 398.39
  Q 124.58 403.61 133.39 410.63
  Q 162.60 433.91 197.63 444.39
  Q 237.62 456.35 281.25 450.18
  Q 284.03 450.12 287.25 449.55
  C 298.84 447.48 309.50 444.26 320.84 440.41
  Q 337.03 434.91 352.87 425.56
  Q 399.58 397.96 427.20 351.51
  Q 428.59 349.16 432.36 341.87
  Q 435.28 336.22 437.00 331.55
  Q 439.58 324.54 442.40 317.12
  Q 444.53 311.50 445.52 306.27
  A 2.73 2.73 0.0 0 1 449.03 304.18
  L 453.06 305.45
  A 0.90 0.89 -49.6 0 0 453.74 305.39
  Q 457.08 303.66 460.78 303.06
  C 462.74 302.74 463.69 301.73 464.44 300.07
  Q 464.63 299.64 465.00 299.36
  C 466.16 298.50 466.21 296.71 465.31 295.58
  Q 464.85 294.98 465.25 294.36
  Q 465.51 293.96 465.55 293.48
  Q 465.69 291.50 465.85 289.65
  Q 465.91 288.98 466.26 288.42
  Q 466.47 288.08 466.89 288.04
  A 0.67 0.66 -87.3 0 0 467.51 287.47
  Q 468.02 284.01 468.73 280.77
  Q 468.85 280.23 468.83 279.70
  Q 468.81 279.08 469.29 278.66
  Q 469.68 278.33 469.65 277.81
  Q 469.59 277.00 470.07 276.26
  Q 470.37 275.79 470.43 275.25
  Q 470.75 272.27 470.92 269.24
  Q 471.07 266.62 471.90 263.40
  Q 472.66 260.53 473.23 257.61
  Q 473.44 256.52 473.73 255.47
  C 474.34 253.26 473.32 251.12 473.18 249.03
  Q 473.08 247.66 472.87 246.27
  Q 472.63 244.74 472.65 243.29
  Q 472.70 239.79 472.56 236.01
  Q 472.49 234.24 472.76 232.57
  Q 473.03 230.87 472.58 228.77
  Q 472.45 228.19 472.89 227.78
  Q 473.01 227.66 473.19 227.66
  Q 473.48 227.67 473.68 227.88
  Q 474.03 228.26 474.78 227.93
  Z"
/>
<path fill="#289cc7" d="
  M 222.59 246.99
  L 229.92 247.01
  A 0.43 0.43 0.0 0 1 230.35 247.44
  L 230.32 252.56
  A 0.43 0.43 0.0 0 1 229.89 252.99
  L 221.52 253.00
  A 0.43 0.43 0.0 0 0 221.09 253.38
  L 219.43 267.01
  A 0.43 0.43 0.0 0 0 219.86 267.49
  L 227.57 267.44
  A 0.43 0.43 0.0 0 1 228.00 267.87
  L 228.00 273.16
  A 0.43 0.43 0.0 0 1 227.57 273.59
  L 218.82 273.51
  A 0.43 0.43 0.0 0 0 218.39 273.89
  L 215.91 292.62
  A 0.43 0.43 0.0 0 1 215.48 292.99
  L 210.25 293.00
  A 0.43 0.43 0.0 0 1 209.82 292.51
  L 212.28 274.03
  A 0.43 0.43 0.0 0 0 211.85 273.54
  L 202.40 273.53
  A 0.43 0.43 0.0 0 0 201.97 273.90
  L 199.51 292.63
  A 0.43 0.43 0.0 0 1 199.08 293.00
  L 193.81 292.99
  A 0.43 0.43 0.0 0 1 193.38 292.50
  L 195.85 274.02
  A 0.43 0.43 0.0 0 0 195.42 273.53
  L 188.10 273.54
  A 0.43 0.43 0.0 0 1 187.67 273.11
  L 187.67 267.90
  A 0.43 0.43 0.0 0 1 188.10 267.47
  L 196.49 267.48
  A 0.43 0.43 0.0 0 0 196.92 267.10
  L 198.66 253.48
  A 0.43 0.43 0.0 0 0 198.23 253.00
  L 190.65 253.00
  A 0.43 0.43 0.0 0 1 190.22 252.57
  L 190.24 247.44
  A 0.43 0.43 0.0 0 1 190.67 247.01
  L 199.31 246.99
  A 0.43 0.43 0.0 0 0 199.74 246.62
  L 202.17 228.37
  A 0.43 0.43 0.0 0 1 202.60 228.00
  L 207.66 227.99
  A 0.43 0.43 0.0 0 1 208.09 228.48
  L 205.72 246.51
  A 0.43 0.43 0.0 0 0 206.15 247.00
  L 215.58 247.00
  A 0.43 0.43 0.0 0 0 216.00 246.63
  L 218.51 228.37
  A 0.43 0.43 0.0 0 1 218.93 228.00
  L 224.06 227.99
  A 0.43 0.43 0.0 0 1 224.49 228.48
  L 222.16 246.51
  A 0.43 0.43 0.0 0 0 222.59 246.99
  Z
  M 203.00 267.07
  A 0.35 0.35 0.0 0 0 203.35 267.47
  L 212.95 267.48
  A 0.35 0.35 0.0 0 0 213.30 267.17
  L 215.08 253.39
  A 0.35 0.35 0.0 0 0 214.73 253.00
  L 205.17 253.00
  A 0.35 0.35 0.0 0 0 204.82 253.30
  L 203.00 267.07
  Z"
/>
<path fill="#29282e" d="
  M 203.00 267.07
  L 204.82 253.30
  A 0.35 0.35 0.0 0 1 205.17 253.00
  L 214.73 253.00
  A 0.35 0.35 0.0 0 1 215.08 253.39
  L 213.30 267.17
  A 0.35 0.35 0.0 0 1 212.95 267.48
  L 203.35 267.47
  A 0.35 0.35 0.0 0 1 203.00 267.07
  Z"
/>
<path fill="#000001" d="
  M 36.65 283.55
  Q 37.05 285.93 37.68 288.02
  Q 38.36 290.25 38.10 292.47
  C 38.02 293.12 38.24 293.51 38.64 293.97
  A 1.85 1.83 -66.5 0 1 39.08 295.11
  Q 39.28 300.71 40.80 305.56
  Q 40.93 306.00 41.23 306.34
  C 42.11 307.35 41.72 308.42 42.37 309.44
  Q 42.59 309.78 42.61 310.19
  Q 42.66 312.04 43.39 313.89
  Q 43.53 314.25 43.90 314.37
  Q 44.20 314.47 44.17 314.79
  Q 43.93 316.88 44.76 318.72
  Q 45.11 319.49 45.30 320.30
  Q 45.56 321.38 46.49 322.00
  A 0.95 0.95 0.0 0 1 46.92 322.91
  C 46.83 323.74 47.00 324.21 47.55 324.90
  Q 48.58 326.17 48.82 327.77
  Q 48.91 328.32 49.22 328.78
  Q 50.97 331.31 51.30 334.49
  C 51.41 335.65 52.38 336.16 52.69 337.16
  Q 53.75 340.54 55.62 343.57
  Q 55.90 344.02 55.93 344.54
  Q 55.95 345.01 56.23 345.37
  Q 57.20 346.61 57.14 348.25
  Q 57.13 348.79 57.33 349.30
  L 58.45 352.10
  Q 58.59 353.64 59.57 355.01
  Q 60.93 356.89 61.24 357.54
  Q 62.37 359.96 63.49 362.40
  Q 64.15 363.85 65.12 364.80
  Q 66.35 366.02 67.04 367.57
  Q 67.18 367.88 67.10 368.21
  Q 67.01 368.57 67.35 368.67
  Q 67.81 368.82 67.97 369.27
  L 68.87 371.86
  Q 69.06 372.38 69.50 372.71
  Q 70.23 373.25 70.01 374.11
  Q 69.89 374.59 70.15 375.00
  Q 70.60 375.72 70.40 376.35
  Q 67.42 371.86 64.72 367.29
  Q 47.04 337.35 39.56 303.46
  Q 38.78 299.92 38.30 296.49
  Q 37.82 292.97 37.25 289.47
  C 36.92 287.47 37.00 285.54 36.65 283.55
  Z"
/>
<path fill="#030303" fill-opacity="0.690" d="
  M 468.97 312.78
  Q 465.99 324.28 461.81 335.34
  Q 460.69 338.30 457.22 345.98
  Q 454.77 351.41 452.09 356.35
  Q 444.20 370.93 434.51 383.75
  C 427.53 392.99 419.55 402.21 411.25 410.56
  Q 405.44 416.40 399.33 422.39
  Q 397.28 424.40 395.05 426.20
  Q 385.61 433.81 375.36 440.80
  C 373.97 441.75 372.39 442.49 371.17 443.61
  Q 370.31 444.39 369.26 444.90
  Q 366.29 446.36 363.63 448.14
  Q 362.57 448.85 361.39 449.35
  Q 359.67 450.07 358.24 451.11
  Q 357.99 451.30 357.68 451.31
  Q 357.36 451.32 357.27 451.61
  Q 357.10 452.16 356.53 452.22
  L 356.03 452.28
  Q 355.59 452.33 355.46 452.75
  Q 355.20 453.68 354.25 453.35
  Q 353.69 453.16 353.45 453.70
  Q 353.09 454.54 352.06 454.32
  Q 351.17 454.13 351.44 454.98
  Q 351.49 455.14 351.14 455.27
  Q 350.77 455.41 350.39 455.27
  Q 349.56 454.97 349.34 455.87
  Q 349.19 456.54 348.55 456.27
  Q 347.54 455.86 347.38 456.85
  Q 347.32 457.18 346.99 457.22
  L 344.80 457.50
  Q 344.39 457.55 344.46 457.96
  Q 344.49 458.12 344.37 458.23
  Q 343.99 458.55 343.52 458.39
  Q 342.48 458.04 342.33 459.06
  Q 342.26 459.49 341.85 459.34
  Q 340.85 458.95 340.29 459.85
  A 0.77 0.77 0.0 0 1 339.74 460.21
  L 337.78 460.47
  Q 337.36 460.52 337.42 460.94
  Q 337.43 461.07 337.32 461.18
  Q 337.20 461.31 337.02 461.25
  Q 335.88 460.90 335.23 461.77
  Q 335.05 462.01 334.76 462.09
  L 321.96 466.05
  Q 322.26 464.78 323.39 464.46
  Q 323.87 464.33 324.21 463.96
  Q 325.21 462.89 326.44 462.32
  Q 327.48 461.84 328.51 461.28
  Q 331.12 459.89 334.20 458.63
  Q 340.50 456.06 345.67 453.91
  Q 345.88 453.83 345.99 453.64
  Q 346.20 453.27 346.64 453.22
  Q 348.41 453.02 349.45 451.64
  Q 349.75 451.25 350.23 451.17
  Q 351.06 451.03 351.80 450.67
  Q 362.48 445.48 371.72 439.57
  Q 376.84 436.30 381.69 432.47
  Q 382.72 431.65 383.72 430.73
  Q 384.61 429.93 385.76 429.30
  Q 387.67 428.26 389.28 426.78
  Q 393.48 422.92 397.70 419.37
  Q 400.29 417.21 404.82 412.38
  C 409.53 407.35 414.64 402.47 419.51 397.60
  Q 421.35 395.77 422.83 393.84
  Q 424.49 391.67 426.74 390.48
  Q 426.82 390.43 426.89 390.49
  Q 427.00 390.59 427.13 390.58
  Q 427.42 390.57 427.52 390.30
  L 428.19 388.46
  Q 428.36 387.99 428.84 387.82
  Q 429.18 387.70 429.18 387.29
  Q 429.18 386.75 429.51 386.32
  Q 431.20 384.19 432.05 381.92
  Q 432.40 380.97 433.18 380.24
  Q 434.18 379.30 434.87 378.17
  Q 435.78 376.68 437.02 375.36
  Q 438.98 373.28 439.99 370.93
  Q 440.52 369.70 441.61 368.87
  A 1.24 1.15 82.4 0 0 442.02 368.29
  Q 442.19 367.76 442.15 367.17
  A 0.53 0.53 0.0 0 1 442.52 366.64
  Q 443.74 366.27 443.97 365.00
  Q 444.12 364.18 444.55 363.42
  Q 445.06 362.52 445.64 361.66
  Q 445.88 361.29 445.90 360.85
  Q 445.93 359.48 445.79 358.00
  Q 445.75 357.62 446.16 357.56
  Q 446.54 357.51 446.70 357.16
  Q 447.14 356.16 448.23 356.17
  Q 448.74 356.17 449.03 355.74
  L 450.67 353.31
  Q 451.02 352.79 450.86 352.17
  Q 450.62 351.31 451.33 350.96
  A 0.81 0.81 0.0 0 0 451.79 350.17
  Q 451.57 347.34 453.49 345.49
  Q 453.99 345.01 453.92 344.32
  Q 453.86 343.79 454.34 343.54
  Q 454.76 343.33 454.98 342.91
  Q 456.59 339.87 458.06 337.01
  C 458.41 336.33 458.54 335.48 459.14 335.05
  Q 459.49 334.81 459.60 334.40
  Q 459.65 334.23 459.67 334.04
  Q 459.72 333.56 460.02 333.16
  Q 461.95 330.69 462.14 327.50
  Q 462.17 326.99 462.75 326.84
  A 0.55 0.55 0.0 0 0 463.14 326.18
  Q 463.01 325.68 463.31 325.28
  Q 463.70 324.77 463.61 324.15
  C 463.42 322.69 463.79 320.99 465.00 320.04
  Q 465.64 319.54 466.11 318.84
  Q 466.36 318.46 466.35 318.01
  Q 466.32 316.82 467.23 315.94
  Q 467.46 315.71 467.15 315.80
  Q 466.81 315.91 466.56 316.21
  A 0.88 0.80 72.6 0 0 466.36 316.64
  Q 466.08 318.37 464.80 319.46
  A 3.19 3.16 -21.0 0 0 463.68 321.94
  Q 463.72 324.60 462.27 326.89
  C 461.73 327.75 461.53 328.71 461.30 329.69
  Q 461.19 330.16 460.95 330.58
  L 454.57 341.89
  Q 456.29 337.93 457.92 334.52
  Q 460.02 330.10 462.01 325.61
  C 462.84 323.74 462.86 321.76 463.12 319.77
  A 0.49 0.49 0.0 0 1 463.26 319.48
  L 464.09 318.64
  Q 464.49 318.23 464.66 317.68
  Q 465.22 315.80 466.06 314.06
  Q 466.32 313.52 466.92 313.63
  Q 466.97 313.64 466.99 313.70
  Q 467.23 314.27 467.53 313.72
  Q 468.11 312.68 468.97 312.78
  Z"
/>
<path fill="#10131a" d="
  M 321.96 466.05
  L 301.04 471.01
  Q 301.60 469.97 302.67 469.88
  C 303.70 469.79 304.24 469.64 305.04 469.62
  Q 305.62 469.61 305.62 469.02
  L 305.62 468.56
  Q 305.62 468.29 305.78 468.08
  Q 307.33 465.99 309.52 465.30
  Q 310.76 464.91 311.90 464.11
  A 1.34 1.34 0.0 0 1 312.68 463.86
  C 314.69 463.85 316.83 463.34 318.39 462.04
  Q 319.08 461.46 320.02 461.45
  A 1.62 1.57 -61.6 0 0 320.87 461.18
  Q 323.12 459.68 325.81 458.71
  A 1.53 1.52 12.8 0 0 326.34 458.38
  Q 326.68 458.06 327.09 457.92
  Q 329.49 457.08 331.55 455.64
  Q 331.98 455.34 332.50 455.39
  Q 333.50 455.48 334.34 454.87
  Q 335.59 453.96 335.84 453.87
  Q 336.91 453.48 338.07 453.39
  Q 338.59 453.35 338.94 452.96
  Q 339.03 452.86 339.12 452.74
  Q 339.33 452.50 339.61 452.35
  L 346.19 449.04
  A 0.98 0.98 0.0 0 1 346.68 448.93
  Q 347.91 448.95 348.74 447.97
  Q 349.36 447.25 350.23 446.91
  Q 352.85 445.91 355.24 444.39
  Q 356.49 443.59 357.80 443.10
  Q 359.10 442.62 360.36 441.92
  Q 364.25 439.78 368.13 437.38
  Q 370.18 436.11 371.91 434.46
  Q 373.31 433.13 374.83 432.08
  C 376.25 431.09 377.32 429.87 378.83 428.92
  Q 381.47 427.28 383.47 425.27
  C 384.93 423.79 386.75 422.83 388.31 421.47
  A 1.03 1.00 74.3 0 0 388.62 420.90
  Q 388.73 420.24 389.37 419.99
  Q 389.68 419.87 389.92 419.66
  Q 394.89 415.48 399.12 411.38
  Q 399.55 410.97 399.98 410.51
  Q 406.77 403.26 414.06 396.14
  A 2.70 2.68 -10.3 0 0 414.64 395.31
  Q 414.99 394.48 415.80 394.13
  Q 416.06 394.01 416.07 393.72
  Q 416.07 393.22 416.43 392.88
  C 417.78 391.60 419.34 390.18 420.09 388.45
  Q 420.65 387.17 421.89 386.47
  Q 422.32 386.23 422.45 385.75
  Q 422.72 384.71 423.64 384.24
  C 425.97 383.06 428.24 379.64 429.29 377.41
  Q 430.04 375.82 431.69 374.25
  Q 433.05 372.95 434.23 371.49
  Q 435.91 369.40 436.62 368.60
  Q 440.05 364.72 442.62 360.51
  Q 444.23 357.89 445.48 354.58
  Q 446.03 353.11 447.24 352.13
  A 1.55 1.54 -17.2 0 0 447.80 351.08
  Q 447.90 349.79 448.72 349.12
  Q 449.39 348.57 449.83 347.70
  Q 451.06 345.26 451.70 342.50
  A 2.05 2.01 -17.8 0 1 452.16 341.63
  Q 453.02 340.67 453.43 339.39
  Q 453.59 338.89 454.01 338.57
  C 455.62 337.38 455.42 335.34 456.24 333.95
  Q 458.31 330.46 459.74 326.77
  L 459.02 329.65
  Q 458.91 330.12 458.50 330.40
  Q 457.47 331.11 457.43 332.39
  Q 457.42 332.82 457.10 333.12
  Q 456.74 333.47 456.64 333.96
  Q 456.10 336.69 454.19 338.89
  A 1.46 1.11 -28.1 0 0 453.86 339.61
  Q 453.84 339.78 453.88 339.97
  Q 453.90 340.11 453.82 340.23
  Q 452.65 341.87 452.15 343.91
  Q 451.93 344.80 452.55 344.12
  L 454.57 341.89
  L 460.95 330.58
  Q 461.19 330.16 461.30 329.69
  C 461.53 328.71 461.73 327.75 462.27 326.89
  Q 463.72 324.60 463.68 321.94
  A 3.19 3.16 -21.0 0 1 464.80 319.46
  Q 466.08 318.37 466.36 316.64
  A 0.88 0.80 72.6 0 1 466.56 316.21
  Q 466.81 315.91 467.15 315.80
  Q 467.46 315.71 467.23 315.94
  Q 466.32 316.82 466.35 318.01
  Q 466.36 318.46 466.11 318.84
  Q 465.64 319.54 465.00 320.04
  C 463.79 320.99 463.42 322.69 463.61 324.15
  Q 463.70 324.77 463.31 325.28
  Q 463.01 325.68 463.14 326.18
  A 0.55 0.55 0.0 0 1 462.75 326.84
  Q 462.17 326.99 462.14 327.50
  Q 461.95 330.69 460.02 333.16
  Q 459.72 333.56 459.67 334.04
  Q 459.65 334.23 459.60 334.40
  Q 459.49 334.81 459.14 335.05
  C 458.54 335.48 458.41 336.33 458.06 337.01
  Q 456.59 339.87 454.98 342.91
  Q 454.76 343.33 454.34 343.54
  Q 453.86 343.79 453.92 344.32
  Q 453.99 345.01 453.49 345.49
  Q 451.57 347.34 451.79 350.17
  A 0.81 0.81 0.0 0 1 451.33 350.96
  Q 450.62 351.31 450.86 352.17
  Q 451.02 352.79 450.67 353.31
  L 449.03 355.74
  Q 448.74 356.17 448.23 356.17
  Q 447.14 356.16 446.70 357.16
  Q 446.54 357.51 446.16 357.56
  Q 445.75 357.62 445.79 358.00
  Q 445.93 359.48 445.90 360.85
  Q 445.88 361.29 445.64 361.66
  Q 445.06 362.52 444.55 363.42
  Q 444.12 364.18 443.97 365.00
  Q 443.74 366.27 442.52 366.64
  A 0.53 0.53 0.0 0 0 442.15 367.17
  Q 442.19 367.76 442.02 368.29
  A 1.24 1.15 82.4 0 1 441.61 368.87
  Q 440.52 369.70 439.99 370.93
  Q 438.98 373.28 437.02 375.36
  Q 435.78 376.68 434.87 378.17
  Q 434.18 379.30 433.18 380.24
  Q 432.40 380.97 432.05 381.92
  Q 431.20 384.19 429.51 386.32
  Q 429.18 386.75 429.18 387.29
  Q 429.18 387.70 428.84 387.82
  Q 428.36 387.99 428.19 388.46
  L 427.52 390.30
  Q 427.42 390.57 427.13 390.58
  Q 427.00 390.59 426.89 390.49
  Q 426.82 390.43 426.74 390.48
  Q 424.49 391.67 422.83 393.84
  Q 421.35 395.77 419.51 397.60
  C 414.64 402.47 409.53 407.35 404.82 412.38
  Q 400.29 417.21 397.70 419.37
  Q 393.48 422.92 389.28 426.78
  Q 387.67 428.26 385.76 429.30
  Q 384.61 429.93 383.72 430.73
  Q 382.72 431.65 381.69 432.47
  Q 376.84 436.30 371.72 439.57
  Q 362.48 445.48 351.80 450.67
  Q 351.06 451.03 350.23 451.17
  Q 349.75 451.25 349.45 451.64
  Q 348.41 453.02 346.64 453.22
  Q 346.20 453.27 345.99 453.64
  Q 345.88 453.83 345.67 453.91
  Q 340.50 456.06 334.20 458.63
  Q 331.12 459.89 328.51 461.28
  Q 327.48 461.84 326.44 462.32
  Q 325.21 462.89 324.21 463.96
  Q 323.87 464.33 323.39 464.46
  Q 322.26 464.78 321.96 466.05
  Z"
/>
<path fill="#10131a" d="
  M 459.74 326.77
  Q 460.46 323.44 461.23 320.18
  Q 461.23 320.15 461.21 320.14
  Q 461.13 320.12 461.17 320.14
  Q 461.16 323.49 459.74 326.77
  Z"
/>
<path fill="#10131a" d="
  M 84.07 389.99
  L 84.93 392.78
  Q 85.07 393.24 85.51 393.41
  Q 87.31 394.09 88.70 395.91
  L 92.20 398.66
  Q 92.59 398.96 93.07 398.95
  Q 94.03 398.92 94.65 399.85
  Q 95.35 400.91 95.48 401.08
  Q 96.51 402.43 96.81 404.24
  Q 95.42 403.04 94.78 401.22
  Q 94.75 401.15 94.71 401.13
  Q 94.60 401.06 94.63 401.19
  Q 95.37 404.08 97.19 406.52
  Q 97.43 406.84 97.81 406.97
  Q 98.59 407.24 99.06 407.97
  Q 99.26 408.27 99.61 408.35
  Q 100.58 408.59 101.21 409.39
  Q 101.79 410.14 102.62 410.70
  Q 104.75 412.15 106.32 414.38
  Q 107.45 415.99 109.00 416.12
  Q 109.39 416.16 109.66 416.45
  L 111.53 418.51
  Q 111.85 418.86 111.92 419.33
  Q 112.09 420.71 112.91 421.48
  Q 113.84 422.35 116.94 424.72
  Q 117.76 425.35 118.41 426.17
  Q 118.98 426.89 119.82 427.09
  Q 120.34 427.21 120.63 427.66
  Q 121.77 429.43 123.69 429.78
  Q 124.28 429.89 124.63 430.39
  Q 124.96 430.85 125.52 430.85
  Q 126.18 430.85 126.72 431.21
  L 135.12 436.78
  Q 135.63 437.12 136.23 437.20
  Q 137.07 437.31 137.62 437.92
  A 1.57 1.57 0.0 0 0 138.56 438.42
  Q 141.10 438.79 142.10 440.62
  Q 142.38 441.12 142.89 441.38
  Q 148.79 444.39 154.38 447.40
  Q 155.55 448.03 156.48 448.83
  Q 157.26 449.50 158.16 449.89
  Q 158.62 450.09 158.89 450.51
  Q 161.76 454.95 164.26 457.61
  Q 164.62 457.99 165.36 457.90
  Q 165.85 457.84 166.29 458.09
  Q 167.34 458.68 167.49 459.69
  Q 135.49 446.08 109.93 422.96
  C 103.04 416.72 95.95 408.57 89.09 401.27
  Q 79.94 391.53 70.40 376.35
  Q 70.60 375.72 70.15 375.00
  Q 69.89 374.59 70.01 374.11
  Q 70.23 373.25 69.50 372.71
  Q 69.06 372.38 68.87 371.86
  L 67.97 369.27
  Q 67.81 368.82 67.35 368.67
  Q 67.01 368.57 67.10 368.21
  Q 67.18 367.88 67.04 367.57
  Q 66.35 366.02 65.12 364.80
  Q 64.15 363.85 63.49 362.40
  Q 62.37 359.96 61.24 357.54
  Q 60.93 356.89 59.57 355.01
  Q 58.59 353.64 58.45 352.10
  Q 59.06 351.94 58.79 351.06
  Q 58.65 350.62 59.11 350.68
  Q 59.32 350.71 59.41 350.91
  Q 59.47 351.03 59.56 351.13
  Q 61.13 353.14 62.20 355.53
  Q 62.78 356.84 63.47 357.97
  Q 63.93 358.71 64.07 359.62
  Q 64.19 360.46 64.75 361.28
  Q 66.80 364.26 69.08 367.09
  Q 70.03 368.26 70.64 369.63
  Q 71.29 371.05 72.07 372.16
  Q 72.76 373.12 71.73 372.53
  Q 71.57 372.44 71.49 372.27
  Q 71.10 371.44 71.00 372.35
  Q 70.95 372.80 71.06 373.29
  Q 71.17 373.75 71.60 373.95
  Q 74.47 375.24 75.56 377.85
  Q 76.08 379.09 76.83 380.20
  Q 77.44 381.09 77.90 382.14
  Q 78.08 382.57 78.49 382.80
  Q 80.58 384.00 81.28 386.08
  Q 81.43 386.50 81.70 386.86
  L 84.07 389.99
  Z"
/>
<path fill="#000001" d="
  M 84.07 389.99
  Q 85.22 390.64 85.87 391.94
  Q 86.09 392.38 86.53 392.60
  Q 88.48 393.55 88.70 395.91
  Q 87.31 394.09 85.51 393.41
  Q 85.07 393.24 84.93 392.78
  L 84.07 389.99
  Z"
/>
<path fill="#10131a" d="
  M 97.79 404.71
  Q 99.69 405.36 102.56 408.11
  Q 104.59 410.06 108.57 410.01
  Q 107.52 410.89 105.79 410.66
  Q 105.30 410.59 104.94 410.26
  Q 104.24 409.62 103.35 409.26
  Q 102.37 408.85 101.83 408.40
  Q 99.95 406.80 97.87 405.44
  Q 97.61 405.27 97.79 404.71
  Z"
/>
</svg>
