<svg xmlns="http://www.w3.org/2000/svg" viewBox="0 0 100 100" fill="none">
    <!-- Central hub (AI/VS Code) -->
    <circle cx="50" cy="50" r="18" fill="#0078d4" />
    <text x="50" y="55" text-anchor="middle" font-family="Arial" font-size="12" fill="white"
        font-weight="bold">AI</text>

    <!-- USB-C style connector shape in center -->
    <rect x="42" y="42" width="16" height="16" rx="4" fill="#0078d4" stroke="#60a5fa" stroke-width="2" />

    <!-- External service: Database -->
    <circle cx="20" cy="25" r="12" fill="#059669" />
    <ellipse cx="20" cy="22" rx="7" ry="3" fill="#34d399" />
    <path d="M13 22 L13 28 Q20 33 27 28 L27 22" fill="none" stroke="#34d399" stroke-width="1.5" />

    <!-- External service: API/Cloud -->
    <circle cx="80" cy="25" r="12" fill="#7c3aed" />
    <path d="M74 27 Q77 22 80 27 Q83 22 86 27" fill="#c4b5fd" stroke="#7c3aed" />
    <circle cx="80" cy="23" r="3" fill="#c4b5fd" />

    <!-- External service: GitHub -->
    <circle cx="80" cy="75" r="12" fill="#1f2937" />
    <path
        d="M80 67 C73 67 73 75 76 77 C73 78 73 82 76 82 C76 80 78 79 80 79 C82 79 84 80 84 82 C87 82 87 78 84 77 C87 75 87 67 80 67"
        fill="white" />

    <!-- External service: Browser -->
    <circle cx="20" cy="75" r="12" fill="#ea580c" />
    <circle cx="20" cy="75" r="7" fill="#fed7aa" />
    <circle cx="20" cy="75" r="3" fill="#ea580c" />

    <!-- Connection lines -->
    <line x1="32" y1="32" x2="38" y2="40" stroke="#94a3b8" stroke-width="2" stroke-dasharray="4,2" />
    <line x1="68" y1="32" x2="62" y2="40" stroke="#94a3b8" stroke-width="2" stroke-dasharray="4,2" />
    <line x1="32" y1="68" x2="38" y2="60" stroke="#94a3b8" stroke-width="2" stroke-dasharray="4,2" />
    <line x1="68" y1="68" x2="62" y2="60" stroke="#94a3b8" stroke-width="2" stroke-dasharray="4,2" />

    <!-- Data flow arrows -->
    <polygon points="36,38 40,42 38,38 42,40" fill="#0078d4" />
    <polygon points="64,38 60,42 62,38 58,40" fill="#0078d4" />
</svg>