<svg xmlns="http://www.w3.org/2000/svg" viewBox="0 0 800 320" font-family="Segoe UI, Arial, sans-serif">
  <defs>
    <linearGradient id="bg3" x1="0%" y1="0%" x2="100%" y2="100%">
      <stop offset="0%" style="stop-color:#1e1e2e"/>
      <stop offset="100%" style="stop-color:#2d2d44"/>
    </linearGradient>
    <filter id="sh3">
      <feDropShadow dx="1" dy="2" stdDeviation="3" flood-opacity="0.3"/>
    </filter>
  </defs>

  <rect width="800" height="320" rx="12" fill="url(#bg3)"/>

  <text x="400" y="30" text-anchor="middle" fill="#ddd" font-size="16" font-weight="bold">Installation Options for MCP Servers</text>

  <!-- Option 1: NPM / npx -->
  <rect x="30" y="55" width="350" height="235" rx="10" fill="#252540" stroke="#ffa94d" stroke-width="1.5" filter="url(#sh3)"/>
  <rect x="30" y="55" width="350" height="32" rx="10" fill="#3a2a20"/>
  <text x="205" y="76" text-anchor="middle" fill="#ffa94d" font-size="14" font-weight="bold">Option 1: NPM / npx</text>

  <text x="50" y="110" fill="#ccc" font-size="12" font-weight="bold">Works with any MCP server</text>

  <!-- VS Code config -->
  <rect x="45" y="122" width="320" height="55" rx="5" fill="#1a1a2e" stroke="#444" stroke-width="0.5"/>
  <text x="55" y="140" fill="#888" font-size="10">VS Code settings.json</text>
  <text x="55" y="157" fill="#74c0fc" font-size="9" font-family="Consolas, monospace">"command": "npx",</text>
  <text x="55" y="170" fill="#74c0fc" font-size="9" font-family="Consolas, monospace">"args": ["-y", "@harrybin/visuals-mcp"]</text>

  <!-- Claude config -->
  <rect x="45" y="185" width="320" height="55" rx="5" fill="#1a1a2e" stroke="#444" stroke-width="0.5"/>
  <text x="55" y="203" fill="#888" font-size="10">Claude Desktop config</text>
  <text x="55" y="220" fill="#e599f7" font-size="9" font-family="Consolas, monospace">"command": "npx",</text>
  <text x="55" y="233" fill="#e599f7" font-size="9" font-family="Consolas, monospace">"args": ["-y", "@harrybin/visuals-mcp"]</text>

  <text x="55" y="268" fill="#ffa94d" font-size="11">⚙ Manual JSON configuration</text>
  <text x="55" y="283" fill="#888" font-size="10">✓ Universal, works everywhere</text>

  <!-- Option 2: VS Code Extension -->
  <rect x="420" y="55" width="350" height="235" rx="10" fill="#252540" stroke="#51cf66" stroke-width="1.5" filter="url(#sh3)"/>
  <rect x="420" y="55" width="350" height="32" rx="10" fill="#1a3a1a"/>
  <text x="595" y="76" text-anchor="middle" fill="#51cf66" font-size="14" font-weight="bold">Option 2: VS Code Extension</text>

  <text x="440" y="110" fill="#ccc" font-size="12" font-weight="bold">Zero-config, one-click install</text>

  <!-- Extension marketplace mock -->
  <rect x="435" y="122" width="320" height="100" rx="8" fill="#1a1a2e" stroke="#444" stroke-width="0.5"/>

  <!-- Extension icon -->
  <rect x="450" y="135" width="50" height="50" rx="8" fill="#2a5a3a"/>
  <text x="475" y="168" text-anchor="middle" fill="#51cf66" font-size="24">📊</text>

  <text x="510" y="152" fill="#ddd" font-size="12" font-weight="bold">Visuals MCP</text>
  <text x="510" y="167" fill="#888" font-size="10">harrybin • ★ 4.8</text>

  <rect x="510" y="175" width="70" height="22" rx="4" fill="#51cf66"/>
  <text x="545" y="190" text-anchor="middle" fill="#1e1e2e" font-size="10" font-weight="bold">Install</text>

  <text x="693" y="190" text-anchor="middle" fill="#888" font-size="20">✓</text>

  <text x="440" y="245" fill="#51cf66" font-size="11">✨ Auto-registers with Copilot Chat</text>
  <text x="440" y="262" fill="#51cf66" font-size="11">✨ No JSON editing needed</text>
  <text x="440" y="279" fill="#51cf66" font-size="11">✨ One click to start using</text>
</svg>